<svg width="2088" height="1446" viewBox="0 0 2088 1446" fill="none" xmlns="http://www.w3.org/2000/svg">
<path fill-rule="evenodd" clip-rule="evenodd" d="M490 513.933C490 771.522 489.707 987.724 489.349 994.382L488.698 1006.49L485.099 1006.79C481.635 1007.08 481.488 1007.25 481.193 1011.34C480.886 1015.57 480.866 1015.59 476.943 1015.59C473.033 1015.59 473 1015.62 473 1019.45V1023.31L465.484 1024C461.35 1024.37 451.675 1024.37 443.984 1023.98L430 1023.29V1019.55V1015.8L422.133 1015.1L414.266 1014.41L413.633 1008.35C413.285 1005.02 413 953.988 413 894.943V787.59H404.5H396V783.59C396 779.685 395.917 779.59 392.5 779.59C389.083 779.59 389 779.685 389 783.59V787.59H384.5H380V897.09V1006.59H383.961H387.922L388.211 1015.34L388.5 1024.09L392.186 1024.4L395.872 1024.7L396.565 1032.65L397.258 1040.59H401.629H406V1044.45V1048.31L412.147 1048.95C415.527 1049.3 420.9 1049.59 424.086 1049.59H429.879L430.19 1053.34L430.5 1057.09H451.5H472.5L472.805 1053.43L473.111 1049.76L481.555 1049.06L490 1048.35V1044.47C490 1040.61 490.02 1040.59 494 1040.59C497.99 1040.59 498 1040.58 498 1036.65C498 1032.72 498.021 1032.7 502.25 1032.4C506.479 1032.09 506.501 1032.07 506.807 1027.84C507.114 1023.61 507.134 1023.59 511.057 1023.59H515V1010.59V997.59H519H523V521.59V45.5903H506.5H490V513.933ZM548.298 513.864C548.642 771.414 548.648 987.639 548.309 994.364L547.695 1006.59H544.49C541.301 1006.59 541.282 1006.62 540.642 1012.74C540.289 1016.12 540 1021.97 540 1025.74V1032.59H536H532V1036.59C532 1040.58 531.99 1040.59 528.057 1040.59C524.134 1040.59 524.114 1040.61 523.807 1044.84C523.501 1049.07 523.479 1049.09 519.25 1049.4L515 1049.71V1057.53V1065.35L506.5 1066.06L498 1066.77V1070.68V1074.59H489.5H481V1078.59V1082.59H451.5H422V1078.59V1074.59H413.5H405V1070.69V1066.8L397 1066.09L389 1065.38V1061.49V1057.59H384.5H380V1053.09V1048.59H376.104H372.208L371.5 1040.59L370.792 1032.59H366.896H363V1019.59V1006.59H359H355V897.09V787.59H350.5H346V783.59V779.59H342H338V783.59V787.59H333.5H329V903.443C329 967.163 329.287 1022.04 329.637 1025.39L330.274 1031.49L333.887 1031.79L337.5 1032.09L337.79 1040.34L338.081 1048.59H342.04H346V1053.09V1057.59H349.943C353.866 1057.59 353.886 1057.61 354.193 1061.84C354.499 1066.07 354.521 1066.09 358.75 1066.4C362.979 1066.7 363 1066.72 363 1070.65C363 1074.57 363.019 1074.59 366.943 1074.59C370.866 1074.59 370.886 1074.61 371.193 1078.84C371.49 1082.95 371.619 1083.1 375.193 1083.4C378.663 1083.69 378.905 1083.93 379.193 1087.4C379.49 1090.97 379.637 1091.1 383.75 1091.4C387.979 1091.7 388 1091.72 388 1095.65V1099.59H396.5H405V1103.45V1107.3L411.75 1107.94C415.462 1108.29 421.313 1108.58 424.75 1108.58L431 1108.59V1112.59V1116.59H451.5H472V1112.59V1108.59L478.25 1108.58C481.688 1108.58 487.538 1108.29 491.25 1107.94L498 1107.3V1103.45V1099.59H506.5H515V1095.09V1090.59H518.94C522.77 1090.59 522.888 1090.49 523.19 1086.84C523.491 1083.2 523.625 1083.08 527.75 1082.78C531.979 1082.48 532 1082.46 532 1078.53C532 1074.6 532.01 1074.59 536 1074.59C539.99 1074.59 540 1074.58 540 1070.65C540 1066.72 540.021 1066.7 544.25 1066.4C548.479 1066.09 548.501 1066.07 548.807 1061.84C549.114 1057.61 549.134 1057.59 553.057 1057.59H557V1053.09V1048.59H561H565V1042.74C565 1039.52 565.287 1034.14 565.637 1030.79L566.274 1024.69L569.887 1024.39L573.5 1024.09L573.762 985.84L574.024 947.59H578.012H582V905.59V863.59H578H574V454.59V45.5903H560.836H547.671L548.298 513.864ZM599 526.59V1007.59H595H591V1021.94C591 1029.84 590.711 1039.06 590.358 1042.44C589.717 1048.58 589.707 1048.59 586.476 1048.59H583.237L582.529 1057.09L581.82 1065.59H577.91H574V1070.09V1074.59H570.057C566.134 1074.59 566.114 1074.61 565.807 1078.84C565.501 1083.07 565.479 1083.09 561.25 1083.4C557.021 1083.7 557 1083.72 557 1087.65C557 1091.58 556.99 1091.59 553 1091.59C549.01 1091.59 549 1091.6 549 1095.53C549 1099.46 548.979 1099.48 544.75 1099.78C540.521 1100.09 540.499 1100.11 540.193 1104.34C539.886 1108.57 539.866 1108.59 535.943 1108.59C532.01 1108.59 532 1108.6 532 1112.59V1116.59H527.5H523V1120.47V1124.35L514.5 1125.06L506 1125.77V1129.04C506 1132.3 505.997 1132.31 499.853 1132.95C496.473 1133.3 489.048 1133.59 483.353 1133.59H473V1137.59V1141.59H447.5H422V1137.59V1133.59H409.5H397V1129.71V1125.83L388.5 1125.12L380 1124.41V1120.5V1116.59H371.5H363V1112.59C363 1108.6 362.99 1108.59 359.057 1108.59C355.134 1108.59 355.114 1108.57 354.807 1104.34C354.501 1100.11 354.479 1100.09 350.25 1099.78C346.021 1099.48 346 1099.46 346 1095.53C346 1091.61 345.981 1091.59 342.057 1091.59C338.134 1091.59 338.114 1091.57 337.807 1087.34C337.511 1083.24 337.373 1083.08 333.849 1082.79L330.199 1082.48L329.495 1074.54L328.792 1066.59H324.896H321V1062.09V1057.59H317.118H313.237L312.529 1049.09L311.82 1040.59H307.91H304V918.09V795.59H300H296V791.59V787.59H291.5H287V783.59V779.59H283H279V783.59V787.59H274.5H270V897.433C270 957.847 270.293 1012.72 270.651 1019.38L271.302 1031.49L274.901 1031.79L278.5 1032.09L278.78 1044.84L279.06 1057.59H282.989H286.919L287.21 1065.84L287.5 1074.09L291.75 1074.4C295.979 1074.7 296 1074.72 296 1078.65C296 1082.58 296.01 1082.59 300 1082.59H304V1091.09V1099.59H308.5H313V1103.59V1107.59H317H321V1112.09V1116.59H325.5H330V1120.59V1124.59H334H338V1129.09V1133.59H346H354V1137.59V1141.59H358.5H363V1145.47V1149.35L371.5 1150.06L380 1150.77V1154.68V1158.59H392.5H405V1162.44V1166.28L417.75 1166.93C424.763 1167.29 439.95 1167.58 451.5 1167.58C463.05 1167.58 478.237 1167.29 485.25 1166.93L498 1166.28V1162.44V1158.59H510.443H522.885L523.193 1154.34C523.499 1150.11 523.521 1150.09 527.75 1149.78C531.84 1149.49 532 1149.35 532 1146.14V1142.8L540 1142.09L548 1141.38V1137.49V1133.59H552.5H557V1129.69V1125.8L564.904 1125.1L572.809 1124.4L573.504 1116.55L574.199 1108.7L578.349 1108.39C582.463 1108.09 582.503 1108.05 582.807 1103.84C583.114 1099.61 583.134 1099.59 587.057 1099.59C590.99 1099.59 591 1099.58 591 1095.59V1091.59H595H599V1087.09V1082.59H602.855H606.711L607.348 1075.84C607.699 1072.13 607.989 1066.5 607.993 1063.34L608 1057.59H612H616V1049.09V1040.59H619.842H623.683L624.342 1020.93C624.704 1010.12 625 996.841 625 991.429V981.59H628.384H631.767L632.187 971.34C632.418 965.702 632.411 755.103 632.172 503.34L631.737 45.5903H615.369H599V526.59ZM650 433.09V820.59H654H658V825.09V829.59H654H650V846.59V863.59H654H658V910.09V956.59H654H650V998.59V1040.59H646H642L641.993 1046.84C641.989 1050.28 641.699 1056.13 641.348 1059.84L640.711 1066.59H636.896H633.081L632.79 1074.84L632.5 1083.09L628.75 1083.4L625 1083.71V1091.65V1099.59H620.5H616V1104.09V1108.59H612.104H608.208L607.5 1116.59L606.792 1124.59H602.896H599V1129.09V1133.59H594.5H590V1137.59V1141.59H586C582.018 1141.59 582 1141.61 582 1145.49V1149.38L574 1150.09L566 1150.8V1154.69V1158.59H561.5H557V1162.5V1166.41L548.5 1167.12L540 1167.83V1171.71V1175.59H531.5H523V1179.45V1183.31L516.853 1183.95C513.473 1184.3 507.848 1184.59 504.353 1184.59H498V1188.59V1192.59H451.5H405V1188.59V1184.59H398.647C395.152 1184.59 389.527 1184.3 386.147 1183.95L380 1183.31V1179.45V1175.59H371.5H363V1171.63V1167.67L354.75 1167.38L346.5 1167.09L346.193 1162.84L345.885 1158.59H338H330.115L329.807 1154.34C329.501 1150.11 329.479 1150.09 325.25 1149.78C321.021 1149.48 321 1149.46 321 1145.53C321 1141.6 320.99 1141.59 317 1141.59H313V1137.59V1133.59H308.5H304V1129.09V1124.59H300H296V1120.59V1116.59H291.5H287V1108.09V1099.59H283.057C279.134 1099.59 279.114 1099.57 278.807 1095.34C278.51 1091.23 278.379 1091.08 274.814 1090.78L271.128 1090.48L270.435 1082.53L269.742 1074.59H265.871H262V1066.09V1057.59H258.142H254.285L253.642 1051.44C253.289 1048.06 253 1038.61 253 1030.44V1015.59H249H245V901.59V787.59H240.5H236V783.59V779.59H232H228V783.59V787.59H223.5H219V792.09C219 796.566 218.981 796.59 215.5 796.59H212V804.59V812.59H215.5C218.981 812.59 219 812.614 219 817.09C219 821.566 218.981 821.59 215.5 821.59H212V884.59V947.59H215.5H219L219.002 966.34C219.003 976.653 219.3 999.603 219.663 1017.34L220.323 1049.59H224.162H228L228.009 1056.34C228.013 1060.05 228.301 1065.45 228.648 1068.34C229.263 1073.46 229.356 1073.59 232.521 1073.59H235.763L236.471 1082.09L237.18 1090.59H241.09H245V1095.59V1100.59H248.896H252.792L253.5 1108.59L254.208 1116.59H258.104H262V1121.09V1125.59H265.896H269.792L270.5 1133.59L271.208 1141.59H275.104C278.983 1141.59 279 1141.61 279 1145.59V1149.59H283H287V1154.09V1158.59H291.5H296V1162.49V1166.38L304 1167.09L312 1167.8V1171.69V1175.59H316.5H321V1179.53C321 1183.46 321.021 1183.48 325.25 1183.78C329.361 1184.08 329.51 1184.21 329.807 1187.78L330.113 1191.46L338.057 1192.16L346 1192.85V1196.6V1200.35L354.5 1201.06L363 1201.77V1205.09V1208.41L371.5 1209.12L380 1209.83V1213.71V1217.59L391.25 1217.6C397.438 1217.6 404.862 1217.89 407.75 1218.24C412.883 1218.86 413 1218.94 413 1222.14V1225.4L432.25 1225.75C442.837 1225.94 460.163 1225.93 470.75 1225.73L490 1225.38V1222.13C490 1218.88 490.01 1218.87 496.147 1218.23C499.527 1217.88 506.952 1217.59 512.647 1217.59H523V1213.63V1209.67L531.75 1209.38L540.5 1209.09L540.807 1205.4L541.113 1201.72L549.057 1201.03L557 1200.33V1196.5V1192.67L565.25 1192.38L573.5 1192.09L573.807 1187.84L574.115 1183.59H578.557H583V1179.59V1175.59H591H599V1171.09V1166.59H603H607V1162.59V1158.59H611.5H616V1154.09V1149.59H620H624V1145.59C624 1141.61 624.017 1141.59 627.896 1141.59H631.792L632.5 1133.59L633.208 1125.59H637.104H641V1121.09V1116.59H644.896H648.792L649.5 1108.59L650.208 1100.59H654.104C657.831 1100.59 658 1100.45 658.009 1097.34C658.013 1095.55 658.301 1091.73 658.648 1088.84C659.264 1083.71 659.354 1083.59 662.533 1083.59H665.788L666.5 1074.59L667.212 1065.59H671.106H675V1044.59V1023.59H678.877H682.753L683.182 992.84C683.417 975.928 683.413 755.878 683.173 503.84L682.736 45.5903H666.368H650V433.09ZM709 528.443C709 794.013 708.711 1014.06 708.358 1017.44C707.718 1023.56 707.699 1023.59 704.512 1023.59H701.309L700.658 1036.34C700.301 1043.35 700.006 1053.03 700.004 1057.84L700 1066.59H696H692V1079.09V1091.59H688.118H684.237L683.529 1100.09L682.82 1108.59H678.91H675V1116.59V1124.59H671H667V1129.09V1133.59H663.104H659.208L658.5 1141.59L657.792 1149.59H653.896H650V1154.03V1158.48L645.75 1158.78C641.521 1159.09 641.499 1159.11 641.193 1163.34C640.886 1167.57 640.866 1167.59 636.943 1167.59C633.01 1167.59 633 1167.6 633 1171.59C633 1175.58 632.99 1175.59 629.057 1175.59C625.134 1175.59 625.114 1175.61 624.807 1179.84C624.501 1184.07 624.479 1184.09 620.25 1184.4C616.021 1184.7 616 1184.72 616 1188.65V1192.59H611.5H607V1196.49V1200.38L599 1201.09L591 1201.8V1205.69V1209.59H582.5H574V1213.53C574 1217.46 573.979 1217.48 569.75 1217.78C565.656 1218.08 565.489 1218.22 565.198 1221.7L564.896 1225.32L558.801 1225.95C555.449 1226.3 550.073 1226.59 546.853 1226.59H541V1230.59V1234.59H528H515V1238.45V1242.3L508.25 1242.94C504.538 1243.29 491.263 1243.58 478.75 1243.58L456 1243.59V1247.09V1250.59H447.5H439V1247.09V1243.59L420.25 1243.58C409.938 1243.58 398.462 1243.29 394.75 1242.94L388 1242.3V1238.45V1234.59H371.5H355V1230.71V1226.83L346.5 1226.12L338 1225.41V1221.5V1217.59H333.5H329V1213.59V1209.59H320.5H312V1205.69V1201.8L304 1201.09L296 1200.38V1196.49V1192.59H291.5H287V1188.09V1183.59H283H279V1179.59V1175.59H274.5H270V1171.59V1167.59H266H262V1163.09V1158.59H257.5H253V1154.09V1149.59H249H245V1145.59C245 1141.61 244.985 1141.59 241.09 1141.59H237.18L236.471 1133.09L235.763 1124.59H231.882H228V1116.59V1108.59H224H220V1104.09V1099.59H216.142H212.285L211.642 1093.44C211.289 1090.06 211 1084.44 211 1080.94V1074.59H207H203V1059.74C203 1051.57 202.711 1042.12 202.358 1038.74C201.718 1032.62 201.699 1032.59 198.513 1032.59H195.31L194.655 1018.93C194.295 1011.42 194 956.295 194 896.432V787.59H181.5H169V792.09V796.59H165H161V880.59V964.59H165H169V1008.94C169 1033.34 169.289 1056.06 169.642 1059.44C170.282 1065.56 170.299 1065.59 173.498 1065.59H176.711L177.348 1072.34C177.699 1076.05 177.989 1081.68 177.993 1084.84L178 1090.59H182H186V1099.09V1107.59H189.882H193.763L194.471 1116.09L195.18 1124.59H199.09H203V1133.09V1141.59H206.943C210.866 1141.59 210.886 1141.61 211.193 1145.84C211.499 1150.07 211.521 1150.09 215.75 1150.4L220 1150.71V1158.65V1166.59H224H228V1171.09V1175.59H232.5H237V1179.59V1183.59H241H245V1188.09V1192.59H249.5H254V1196.59V1200.59H258H262V1205.09V1209.59H266.5H271V1213.59V1217.59H279H287V1222.09V1226.59H291.5H296V1230.59V1234.59H300H304V1238.59V1242.59H312.5H321V1246.45V1250.31L327.147 1250.95C330.527 1251.3 336.152 1251.59 339.647 1251.59H346V1255.47V1259.35L354.5 1260.06L363 1260.77V1264.04C363 1267.3 363.003 1267.31 369.147 1267.95C372.527 1268.3 378.152 1268.59 381.647 1268.59H388V1272.59V1276.59H451.5H515V1272.59V1268.59H521.353C524.848 1268.59 530.473 1268.3 533.853 1267.95C539.997 1267.31 540 1267.3 540 1264.04V1260.77L548.5 1260.06L557 1259.35V1255.47V1251.59H563.353C566.848 1251.59 572.449 1251.3 575.801 1250.95L581.896 1250.32L582.198 1246.7L582.5 1243.09L590.75 1242.8L599 1242.51V1238.55V1234.59H603.5H608V1230.69V1226.8L616 1226.09L624 1225.38V1221.49V1217.59H628.5H633V1213.59V1209.59H637H641V1205.09V1200.59H645.5H650V1196.59V1192.59H654H658V1188.09V1183.59H662H666V1179.59V1175.59H670.371H674.742L675.435 1167.65L676.128 1159.7L679.814 1159.4C683.379 1159.1 683.51 1158.95 683.807 1154.84C684.114 1150.61 684.134 1150.59 688.057 1150.59H692V1146.09V1141.59H695.96H699.919L700.21 1133.34L700.5 1125.09L704.75 1124.78L709 1124.48V1116.53V1108.59H712.961H716.922L717.211 1099.84L717.5 1091.09L721.146 1090.79L724.792 1090.48L725.517 1074.04L726.243 1057.59H730.121H734V1013.24C734 988.842 734.289 966.117 734.642 962.737L735.285 956.59H738.642H742V910.09V863.59H738.66H735.321L734.66 837.928C734.297 823.814 734 639.764 734 428.928V45.5903H721.5H709V528.443ZM759.999 509.34C759.998 764.403 759.7 990.303 759.336 1011.34L758.675 1049.59H754.838H751V1066.09V1082.59H747H743V1088.94C743 1092.44 742.713 1098.04 742.363 1101.39L741.726 1107.49L738.113 1107.79L734.5 1108.09L734.21 1116.34L733.919 1124.59H730.078H726.237L725.529 1133.09L724.82 1141.59H720.91H717V1146.09V1150.59H713H709V1158.53V1166.48L704.75 1166.78C700.521 1167.09 700.499 1167.11 700.193 1171.34C699.886 1175.57 699.866 1175.59 695.943 1175.59H692V1180.09V1184.59H688.104H684.208L683.5 1192.59L682.792 1200.59H678.896H675V1205.09V1209.59H670.5H666V1213.59V1217.59H662C658.01 1217.59 658 1217.6 658 1221.53C658 1225.46 657.979 1225.48 653.75 1225.78C649.521 1226.09 649.499 1226.11 649.193 1230.34L648.885 1234.59H640.943H633V1239.09V1243.59H628.5H624V1247.59V1251.59H616H608V1255.53C608 1259.46 607.979 1259.48 603.75 1259.78C599.521 1260.09 599.499 1260.11 599.193 1264.34L598.885 1268.59H590.443H582V1272.55V1276.51L573.75 1276.8L565.5 1277.09L565.198 1280.7L564.896 1284.32L558.801 1284.95C555.449 1285.3 549.848 1285.59 546.353 1285.59H540V1289.59V1293.59H523H506V1297.44V1301.28L493.843 1301.94C487.157 1302.3 468.102 1302.59 451.5 1302.59C434.898 1302.59 415.843 1302.3 409.157 1301.94L397 1301.28V1297.44V1293.59H376H355V1289.71V1285.83L346.555 1285.12L338.111 1284.42L337.805 1280.76L337.5 1277.09L329.25 1276.8L321 1276.51V1272.55V1268.59H312.5H304V1264.68V1260.77L295.5 1260.06L287 1259.35V1255.47C287 1251.61 286.98 1251.59 283 1251.59C279.02 1251.59 279 1251.57 279 1247.71V1243.83L270.5 1243.12L262 1242.41V1238.5V1234.59H257.5H253V1230.59V1226.59H249H245V1222.09V1217.59H240.5H236V1213.59V1209.59H232H228V1205.09V1200.59H224H220V1196.59V1192.59H215.5H211V1188.09V1183.59H207.104H203.208L202.5 1175.59L201.792 1167.59H197.896H194V1163.09V1158.59H190H186V1150.65V1142.71L181.75 1142.4L177.5 1142.09L177.21 1133.84L176.919 1125.59H172.96H169V1117.09V1108.59H165.118H161.237L160.533 1100.15L159.83 1091.7L156.165 1091.4L152.5 1091.09L152.219 1078.84L151.938 1066.59H148.133H144.327L143.663 1015.43C143.299 987.285 143 926.31 143 879.926V795.59H139.5C136.083 795.59 136 795.495 136 791.59V787.59H131.5H127V783.59V779.59H123H119V783.59V787.59H114.5H110V918.09V1048.59H113.845H117.69L118.345 1062.25C118.705 1069.76 119 1079.21 119 1083.25V1090.59H123H127V1099.59V1108.59H130.896H134.792L135.495 1116.54L136.199 1124.48L139.849 1124.79L143.5 1125.09L143.79 1133.34L144.081 1141.59H147.922H151.763L152.471 1150.09L153.18 1158.59H157.09H161V1167.09V1175.59H165H169V1179.59C169 1183.58 169.01 1183.59 172.943 1183.59C176.866 1183.59 176.886 1183.61 177.193 1187.84C177.499 1192.07 177.521 1192.09 181.75 1192.4L186 1192.71V1200.59V1208.48L190.25 1208.78C194.479 1209.09 194.501 1209.11 194.807 1213.34C195.114 1217.57 195.134 1217.59 199.057 1217.59C202.99 1217.59 203 1217.6 203 1221.59V1225.59H207H211V1230.09V1234.59H215.5H220V1238.59C220 1242.58 220.01 1242.59 223.943 1242.59C227.866 1242.59 227.886 1242.61 228.193 1246.84C228.499 1251.07 228.521 1251.09 232.75 1251.4C236.958 1251.7 237 1251.74 237 1255.54V1259.38L244.946 1260.09L252.891 1260.79L253.196 1264.44C253.489 1267.96 253.647 1268.1 257.75 1268.4C261.979 1268.7 262 1268.72 262 1272.65V1276.59H269.943H277.885L278.193 1280.84C278.499 1285.07 278.521 1285.09 282.75 1285.4C286.979 1285.7 287 1285.72 287 1289.65V1293.59H295.5H304V1297.47V1301.35L312.5 1302.06L321 1302.77V1306.68V1310.59H333.5H346V1314.59V1318.59L352.25 1318.6C355.688 1318.6 361.538 1318.89 365.25 1319.24L372 1319.88V1323.09C372 1326.29 372.026 1326.31 378.147 1326.95C381.527 1327.3 390.752 1327.59 398.647 1327.59H413V1331.59V1335.59H451.5H490V1331.59V1327.59H504.353C512.248 1327.59 521.473 1327.3 524.853 1326.95C530.974 1326.31 531 1326.29 531 1323.09V1319.88L537.75 1319.24C541.462 1318.89 547.313 1318.6 550.75 1318.6L557 1318.59V1314.59V1310.59H565.5H574V1306.74V1302.88L580.75 1302.24C584.462 1301.89 590.087 1301.6 593.25 1301.6L599 1301.59V1297.59V1293.59H603.5H608V1289.69V1285.8L615.946 1285.1L623.891 1284.39L624.196 1280.74L624.5 1277.09L632.75 1276.8L641 1276.51V1272.61C641 1268.73 641.029 1268.7 645.25 1268.4C649.479 1268.09 649.501 1268.07 649.807 1263.84C650.114 1259.61 650.134 1259.59 654.057 1259.59C657.99 1259.59 658 1259.58 658 1255.59V1251.59H662.5H667V1247.69V1243.8L675 1243.09L683 1242.38V1238.49V1234.59H687.5H692V1230.09V1225.59H695.896H699.792L700.5 1217.59L701.208 1209.59H705.104C708.983 1209.59 709 1209.57 709 1205.59V1201.59H713H717V1197.09V1192.59H720.943C724.866 1192.59 724.886 1192.57 725.193 1188.34C725.499 1184.11 725.521 1184.09 729.75 1183.78C733.979 1183.48 734 1183.46 734 1179.53C734 1175.62 734.029 1175.59 737.882 1175.59H741.763L742.471 1167.09L743.18 1158.59H747.09H751V1150.09V1141.59H754.896H758.792L759.495 1133.64L760.199 1125.7L763.849 1125.39L767.5 1125.09L767.789 1116.34L768.078 1107.59H772.039H776V1101.24C776 1097.74 776.289 1092.12 776.642 1088.74C777.282 1082.62 777.301 1082.59 780.489 1082.59H783.693L784.346 1070.43C784.706 1063.75 785 1050.47 785 1040.93V1023.59H789H793V534.59V45.5903H776.5H760L759.999 509.34ZM818 534.59V1023.59H814H810V1053.09V1082.59H806H802L801.993 1092.84C801.989 1098.48 801.699 1106.13 801.348 1109.84L800.711 1116.59H796.855H793V1125.09V1133.59H789H785V1142.09V1150.59H781.09H777.18L776.471 1159.09L775.763 1167.59H771.882H768V1175.59V1183.59H764.057C760.134 1183.59 760.114 1183.61 759.807 1187.84C759.501 1192.07 759.479 1192.09 755.25 1192.4L751 1192.71V1201.15V1209.59H747H743V1213.59V1217.59H738.5H734V1222.09V1226.59H730H726V1230.59C726 1234.58 725.99 1234.59 722.057 1234.59C718.134 1234.59 718.114 1234.61 717.807 1238.84C717.501 1243.07 717.479 1243.09 713.25 1243.4C709.021 1243.7 709 1243.72 709 1247.65C709 1251.57 708.981 1251.59 705.057 1251.59C701.134 1251.59 701.114 1251.61 700.807 1255.84C700.501 1260.07 700.479 1260.09 696.25 1260.4C692.021 1260.7 692 1260.72 692 1264.65C692 1268.58 691.99 1268.59 688 1268.59H684V1272.59V1276.59H679.5H675V1281.09V1285.59H670.5H666V1289.59V1293.59H658.057H650.115L649.807 1297.84L649.5 1302.09L641.25 1302.38L633 1302.67V1306.63V1310.59H628.5H624V1314.55V1318.51L615.75 1318.8L607.5 1319.09L607.198 1322.71C606.9 1326.27 606.814 1326.33 601.698 1326.95C598.839 1327.29 593.462 1327.58 589.75 1327.58L583 1327.59V1331.48V1335.38L574 1336.09L565 1336.8V1340.05C565 1343.3 564.99 1343.31 558.853 1343.95C555.473 1344.3 549.848 1344.59 546.353 1344.59H540V1348.59V1352.59H523.157C513.893 1352.59 500.843 1352.88 494.157 1353.24L482 1353.9V1357.24V1360.59H448H414V1357.24V1353.88L407.25 1353.24C403.538 1352.89 392.063 1352.6 381.75 1352.6L363 1352.59V1348.59V1344.59H356.647C353.152 1344.59 347.527 1344.3 344.147 1343.95C338.01 1343.31 338 1343.3 338 1340.05V1336.8L329 1336.09L320 1335.38V1331.48V1327.59H308H296V1323.71V1319.83L287.5 1319.12L279 1318.41V1314.62V1310.83L270.5 1310.12L262 1309.41V1306.06C262 1302.83 261.844 1302.69 257.75 1302.4C253.521 1302.09 253.499 1302.07 253.193 1297.84L252.885 1293.59H244.943H237V1289.59V1285.59H232.5H228V1281.09V1276.59H223.5H219V1272.69V1268.8L211.096 1268.1L203.191 1267.4L202.492 1259.49L201.792 1251.59H197.896C194.035 1251.59 194 1251.56 194 1247.69V1243.8L186.096 1243.1L178.191 1242.4L177.492 1234.49L176.792 1226.59H172.896H169V1222.09V1217.59H165H161V1213.59V1209.59H156.5H152V1205.09V1200.59H148.04H144.081L143.79 1192.34L143.5 1184.09L139.849 1183.79L136.199 1183.48L135.495 1175.54L134.792 1167.59H130.896H127V1163.09V1158.59H123.118H119.237L118.529 1150.09L117.82 1141.59H113.91H110V1129.09V1116.59H106.145H102.289L101.652 1109.84C101.301 1106.13 101.011 1100.5 101.007 1097.34L101 1091.59H97.0003H93.0003V1070.59V1049.59H89.0003H85.0003V918.59V787.59H80.5003H76.0003V783.59V779.59H72.0003H68.0003V783.59V787.59H63.5003H59.0003V792.09V796.59H55.0003H51.0003V876.033V955.475L55.2503 955.858L59.5003 956.241L55.2503 956.415L51.0003 956.59V960.59V964.59H55.0003H59.0003V991.927C59.0003 1006.96 59.2983 1033.51 59.6623 1050.93L60.3233 1082.59H64.1623H68.0003V1095.59V1108.59H72.0003H76.0003L76.0073 1114.34C76.0113 1117.5 76.3013 1123.13 76.6523 1126.84L77.2893 1133.59H81.1453H85.0003V1142.09V1150.59H88.9603H92.9193L93.2103 1158.84L93.5003 1167.09L97.1513 1167.39L100.801 1167.7L101.505 1175.64L102.208 1183.59H106.104H110V1192.03V1200.48L114.25 1200.78C118.479 1201.09 118.501 1201.11 118.807 1205.34C119.114 1209.57 119.134 1209.59 123.057 1209.59H127V1217.53V1225.48L131.25 1225.78C135.479 1226.09 135.501 1226.11 135.807 1230.34C136.114 1234.57 136.134 1234.59 140.057 1234.59H144V1239.09V1243.59H148H152V1247.59C152 1251.58 152.01 1251.59 155.943 1251.59C159.866 1251.59 159.886 1251.61 160.193 1255.84C160.499 1260.07 160.521 1260.09 164.75 1260.4C168.979 1260.7 169 1260.72 169 1264.65C169 1268.58 169.01 1268.59 173 1268.59H177V1272.59V1276.59H181.5H186V1281.09V1285.59H190H194V1289.59V1293.59H198.5H203V1297.53C203 1301.46 203.021 1301.48 207.25 1301.78C211.479 1302.09 211.501 1302.11 211.807 1306.34L212.115 1310.59H220.057H228V1314.53C228 1318.46 228.021 1318.48 232.25 1318.78C236.479 1319.09 236.501 1319.11 236.807 1323.34L237.115 1327.59H245.057H253V1331.59V1335.59H257.5H262V1339.5V1343.41L270.5 1344.12L279 1344.83V1348.71V1352.59H287.5H296V1356.55V1360.51L304.25 1360.8L312.5 1361.09L312.807 1365.34L313.115 1369.59H329.557H346V1373.56V1377.53L358.75 1377.81L371.5 1378.09L371.802 1381.7L372.104 1385.32L378.199 1385.95C381.551 1386.3 415.502 1386.59 453.647 1386.59H523V1382.74V1378.88L529.75 1378.24C533.462 1377.89 541.112 1377.6 546.75 1377.6L557 1377.59V1373.59V1369.59H570H583V1365.68V1361.77L591.5 1361.06L600 1360.35V1357.11C600 1353.95 600.126 1353.85 605.25 1353.24C608.138 1352.89 613.538 1352.6 617.25 1352.6L624 1352.59V1348.71V1344.83L632.5 1344.12L641 1343.41V1339.5V1335.59H645.5H650V1331.72V1327.85L657.943 1327.16L665.887 1326.46L666.193 1322.78L666.5 1319.09L674.75 1318.8L683 1318.51V1314.55V1310.59H687.5H692V1306.09V1301.59H696H700V1297.59V1293.59H704.5H709V1289.65C709 1285.72 709.021 1285.7 713.25 1285.4C717.479 1285.09 717.501 1285.07 717.807 1280.84C718.114 1276.61 718.134 1276.59 722.057 1276.59C725.973 1276.59 726 1276.56 726 1272.69V1268.8L733.904 1268.1L741.809 1267.4L742.508 1259.49L743.208 1251.59H747.104C750.983 1251.59 751 1251.57 751 1247.59V1243.59H755H759V1239.09V1234.59H763.5H768V1230.09V1225.59H771.896H775.792L776.5 1217.59L777.208 1209.59H781.104H785V1205.09V1200.59H789H793V1192.59V1184.59H796.882H800.763L801.471 1176.09L802.18 1167.59H806.09H810V1163.09V1158.59H814H818V1152.24C818 1148.74 818.287 1143.14 818.637 1139.79L819.274 1133.69L822.887 1133.39L826.5 1133.09L826.78 1120.34L827.06 1107.59H831.03H835L835.007 1093.34C835.011 1085.5 835.301 1076.05 835.652 1072.34L836.289 1065.59H839.486H842.684L843.339 1046.84C843.699 1036.53 843.996 1009.98 843.997 987.84L844 947.59H848H852V939.647V931.705L847.75 931.322L843.5 930.939L847.75 930.765L852 930.59V909.59V888.59H848H844V467.09V45.5903H831H818V534.59ZM869 555.59V1065.59H865H861L860.993 1080.34C860.989 1088.45 860.699 1098.13 860.348 1101.84L859.711 1108.59H856.498C853.299 1108.59 853.282 1108.62 852.642 1114.74C852.289 1118.12 852 1125.54 852 1131.24V1141.59H848.118H844.237L843.529 1150.09L842.82 1158.59H839.5H836.18L835.471 1167.09L834.763 1175.59H830.882H827V1184.09V1192.59H823.104H819.208L818.5 1200.59L817.792 1208.59H813.896H810V1213.09V1217.59H806.118H802.237L801.529 1226.09L800.82 1234.59H796.91C793.015 1234.59 793 1234.61 793 1238.59V1242.59H789H785V1247.09V1251.59H780.5H776V1256.09V1260.59H772.104H768.208L767.5 1268.59L766.792 1276.59H762.896C759.017 1276.59 759 1276.61 759 1280.59V1284.59H755H751V1289.09V1293.59H743.057H735.115L734.807 1297.84C734.501 1302.07 734.479 1302.09 730.25 1302.4C726.021 1302.7 726 1302.72 726 1306.65V1310.59H721.5H717V1314.59V1318.59H713H709V1323.09V1327.59H700.5H692V1332.09V1336.59H688.06C684.23 1336.59 684.112 1336.69 683.81 1340.34C683.509 1343.98 683.375 1344.1 679.25 1344.4C675.021 1344.7 675 1344.72 675 1348.65V1352.59H666.5H658V1356.5V1360.41L649.5 1361.12L641 1361.83V1365.71V1369.59H633H625V1373.47V1377.35L616.555 1378.06L608.111 1378.76L607.805 1382.43L607.5 1386.09L594.75 1386.37L582 1386.65V1390.62V1394.59L576.25 1394.6C573.087 1394.6 567.462 1394.89 563.75 1395.24L557 1395.88V1399.09V1402.3L550.25 1402.94C546.538 1403.29 538.888 1403.58 533.25 1403.58L523 1403.59V1407.59V1411.59H451.5H380V1407.59V1403.59L369.75 1403.58C364.112 1403.58 356.462 1403.29 352.75 1402.94L346 1402.3V1399.09V1395.88L339.25 1395.24C335.538 1394.89 329.913 1394.6 326.75 1394.6L321 1394.59V1390.62V1386.65L308.25 1386.37L295.5 1386.09L295.195 1382.43L294.889 1378.76L286.445 1378.06L278 1377.35V1373.47V1369.59H270H262V1365.59V1361.59H253.5H245V1357.09V1352.59H236.5H228V1348.69V1344.8L220.054 1344.1L212.109 1343.39L211.804 1339.74C211.511 1336.22 211.353 1336.08 207.25 1335.78C203.021 1335.48 203 1335.46 203 1331.53V1327.59H198.5H194V1323.69V1319.8L186 1319.09L178 1318.38V1314.49V1310.59H173.5H169V1306.09V1301.59H165H161V1297.59V1293.59H156.5H152V1289.59V1285.59H148H144V1281.09V1276.59H140.057C136.134 1276.59 136.114 1276.57 135.807 1272.34C135.503 1268.13 135.463 1268.09 131.349 1267.79L127.199 1267.49L126.495 1259.54L125.792 1251.59H121.896C118.017 1251.59 118 1251.57 118 1247.59V1243.59H114H110V1239.09V1234.59H106.09H102.18L101.471 1226.09L100.763 1217.59H96.8823H93.0003V1213.09V1208.59H89.0003H85.0003V1200.59V1192.59H81.0903H77.1803L76.4713 1184.09L75.7633 1175.59H71.8823H68.0003V1167.09V1158.59H64.0003H60.0003L59.9933 1152.84C59.9893 1149.68 59.6993 1144.05 59.3483 1140.34L58.7113 1133.59H54.8553H51.0003V1116.59V1099.59H47.1453H43.2893L42.6523 1092.84C42.3013 1089.13 42.0113 1079.68 42.0073 1071.84L42.0003 1057.59H38.0003H34.0003V922.59V787.59H17.6383H1.27633L0.601342 795.035C-0.0146581 801.839 0.111342 960.921 0.782342 1023.34L1.06533 1049.59H4.39034H7.71532L8.35833 1055.74C8.71133 1059.12 9.00033 1068.57 9.00033 1076.74V1091.59H13.0003H17.0003V1101.94C17.0003 1107.64 17.2873 1115.04 17.6373 1118.39L18.2743 1124.49L21.8873 1124.79L25.5003 1125.09L25.7803 1137.84L26.0603 1150.59H30.0303H34.0003V1163.09V1175.59H38.5003H43.0003V1184.09V1192.59H47.0003H51.0003V1201.09V1209.59H54.8963H58.7923L59.5003 1217.59L60.2083 1225.59H64.1043H68.0003V1230.09V1234.59H71.8963H75.7923L76.4953 1242.54L77.1993 1250.48L80.8493 1250.79C84.3733 1251.08 84.5113 1251.24 84.8073 1255.34C85.1143 1259.57 85.1343 1259.59 89.0573 1259.59H93.0003V1264.09V1268.59H96.9433C100.866 1268.59 100.886 1268.61 101.193 1272.84C101.499 1277.07 101.521 1277.09 105.75 1277.4L110 1277.71V1285.65V1293.59H114.5H119V1297.59V1301.59H123H127V1306.09V1310.59H131.5H136V1314.59V1318.59H140C143.99 1318.59 144 1318.6 144 1322.53C144 1326.46 144.021 1326.48 148.25 1326.78C152.462 1327.09 152.503 1327.13 152.803 1331.24L153.105 1335.39L161.053 1336.1L169 1336.8V1340.69C169 1344.57 169.018 1344.59 173 1344.59H177V1348.59V1352.59H181.5H186V1356.5V1360.41L194.5 1361.12L203 1361.83V1365.71V1369.59H207.5H212V1373.49V1377.38L220 1378.09L228 1378.8V1382.69V1386.59H236.5H245V1390.59V1394.59H249.5H254V1398.59V1402.59L259.75 1402.6C262.913 1402.6 268.538 1402.89 272.25 1403.24L279 1403.88V1407.74V1411.59H285.353C288.848 1411.59 294.473 1411.88 297.853 1412.23C303.974 1412.87 304 1412.89 304 1416.09V1419.3L310.75 1419.94C314.462 1420.29 320.087 1420.58 323.25 1420.58L329 1420.59V1424.59V1428.59H342H355V1432.59V1436.59L371.75 1436.59C380.962 1436.6 394.237 1436.89 401.25 1437.25L414 1437.9V1441.1C414 1444.29 414.031 1444.31 420.147 1444.95C428.12 1445.78 474.88 1445.78 482.853 1444.95C488.974 1444.31 489 1444.29 489 1441.09V1437.88L495.75 1437.24C499.462 1436.89 512.737 1436.6 525.25 1436.6L548 1436.59V1432.59V1428.59H561H574V1424.59V1420.59L579.75 1420.58C582.913 1420.58 588.514 1420.29 592.198 1419.94L598.896 1419.31L599.198 1415.7L599.5 1412.09L611.75 1411.81L624 1411.53V1407.67V1403.8L633 1403.09L642 1402.38V1399.05V1395.73L650 1395.03L658 1394.33V1390.46V1386.59H666.5H675V1382.09V1377.59H683.5H692V1373.59V1369.59H696.5H701V1365.59V1361.59H705C708.985 1361.59 709 1361.58 709 1357.68V1353.77L717.5 1353.06L726 1352.35V1348.47C726 1344.61 726.02 1344.59 730 1344.59C733.99 1344.59 734 1344.58 734 1340.65C734 1336.72 734.021 1336.7 738.25 1336.4C742.462 1336.09 742.503 1336.05 742.803 1331.94L743.105 1327.79L751.053 1327.09L759 1326.38V1322.49V1318.59H763.5H768V1314.09V1309.59H772H776V1305.59V1301.59H780H784V1297.59V1293.59H788.371H792.742L793.435 1285.65L794.128 1277.7L797.814 1277.4C801.379 1277.1 801.51 1276.95 801.807 1272.84C802.114 1268.61 802.134 1268.59 806.057 1268.59H810V1264.09V1259.59H813.896H817.792L818.5 1251.59L819.208 1243.59H823.104H827V1239.09V1234.59H830.871H834.742L835.435 1226.65L836.128 1218.7L839.814 1218.4C843.379 1218.1 843.51 1217.95 843.807 1213.84C844.114 1209.61 844.134 1209.59 848.057 1209.59H852V1201.09V1192.59H855.91H859.82L860.529 1184.09L861.237 1175.59H865.118H869V1167.09V1158.59H873H877V1152.24C877 1148.74 877.289 1143.12 877.642 1139.74C878.282 1133.62 878.298 1133.59 881.5 1133.59C884.702 1133.59 884.718 1133.56 885.358 1127.44C885.711 1124.06 886 1114.61 886 1106.44V1091.59H889.88H893.761L894.5 1057.59L895.239 1023.59H898.474H901.709L902.239 1001.34C902.531 989.103 902.528 769.052 902.233 512.34L901.697 45.5903H885.349H869V555.59ZM1604.25 0.59308C1599.57 0.96208 1599.5 1.0219 1599.5 4.4129V7.85797L1586.75 7.86188C1579.74 7.86388 1568.26 8.15893 1561.25 8.51593L1548.5 9.16705V13.012V16.858H1532H1515.5V20.752V24.6461L1506.5 25.358L1497.5 26.0699V29.3221C1497.5 32.5681 1497.49 32.5739 1491.35 33.2159C1487.97 33.5689 1482.35 33.858 1478.85 33.858H1472.5V37.8179V41.7769L1464.25 42.0679L1456 42.358L1455.69 46.608L1455.39 50.858H1446.94H1438.5V54.754V58.65L1430.55 59.3531L1422.61 60.0569L1422.3 63.7071C1422.01 67.2311 1421.85 67.3689 1417.75 67.6649C1413.52 67.9719 1413.5 67.9919 1413.5 71.9149V75.858H1405.5H1397.5V79.858V83.858H1393H1388.5V88.358V92.858H1384H1379.5V96.858V100.858H1371.56H1363.61L1363.31 105.108C1363 109.337 1362.98 109.359 1358.75 109.665C1354.53 109.971 1354.5 110.002 1354.5 113.858C1354.5 117.714 1354.47 117.745 1350.25 118.051C1346.14 118.348 1345.99 118.479 1345.69 122.044L1345.39 125.73L1337.44 126.423L1329.5 127.116V130.987C1329.5 134.827 1329.47 134.858 1325.56 134.858C1321.63 134.858 1321.61 134.879 1321.31 139.108C1321 143.337 1320.98 143.359 1316.75 143.665C1312.52 143.972 1312.5 143.992 1312.5 147.915C1312.5 151.839 1312.48 151.858 1308.56 151.858C1304.63 151.858 1304.61 151.879 1304.31 156.108C1304 160.337 1303.98 160.359 1299.75 160.665L1295.5 160.973V168.858V176.743L1291.25 177.051C1287.14 177.348 1286.99 177.477 1286.69 181.051C1286.4 184.521 1286.16 184.763 1282.69 185.051C1279.12 185.348 1278.99 185.495 1278.69 189.608C1278.39 193.837 1278.37 193.858 1274.44 193.858H1270.5V198.358V202.858H1266.6H1262.71L1262 210.858L1261.29 218.858H1257.4H1253.5V223.358V227.858H1249.59H1245.68L1244.97 236.358L1244.26 244.858H1240.38H1236.5V252.858V260.858H1232.62H1228.74L1228.03 269.358L1227.32 277.858H1223.41H1219.5V286.358V294.858H1215.5H1211.5V305.711C1211.5 311.681 1211.21 319.331 1210.86 322.711L1210.21 328.858H1206.36H1202.5V345.858V362.858H1198.5H1194.5L1194.5 379.608C1194.49 388.821 1194.2 402.096 1193.84 409.108L1193.19 421.858H1189.85H1186.5V674.858V927.858H1190.5H1194.5V931.858V935.858H1198.5H1202.5V931.858V927.858H1207H1211.5V919.358V910.858H1215.5H1219.5V660.005C1219.5 522.035 1219.79 406.385 1220.14 403.005L1220.79 396.858H1224.14H1227.5L1227.5 384.108C1227.51 377.096 1227.8 365.62 1228.16 358.608L1228.81 345.858H1232.65H1236.5V332.858V319.858H1240.5H1244.5V313.505C1244.5 310.01 1244.79 304.385 1245.14 301.005C1245.78 294.861 1245.79 294.858 1249.05 294.858H1252.32L1253.03 286.358L1253.74 277.858H1257.58H1261.42L1261.71 269.608L1262 261.358L1265.67 261.053L1269.33 260.747L1270.03 252.303L1270.74 243.858H1274.62H1278.5V235.915V227.973L1282.75 227.665C1286.98 227.359 1287 227.337 1287.31 223.108C1287.61 218.879 1287.63 218.858 1291.56 218.858C1295.49 218.858 1295.5 218.848 1295.5 214.858C1295.5 210.878 1295.52 210.858 1299.38 210.858H1303.26L1303.97 202.358L1304.68 193.858H1308.59C1312.48 193.858 1312.5 193.833 1312.5 189.915C1312.5 185.992 1312.52 185.972 1316.75 185.665C1320.98 185.359 1321 185.337 1321.31 181.108C1321.61 176.879 1321.63 176.858 1325.56 176.858C1329.49 176.858 1329.5 176.848 1329.5 172.858C1329.5 168.868 1329.51 168.858 1333.44 168.858C1337.37 168.858 1337.39 168.837 1337.69 164.608C1338 160.379 1338.02 160.357 1342.25 160.051C1346.47 159.745 1346.5 159.714 1346.5 155.858C1346.5 152.002 1346.53 151.971 1350.75 151.665C1354.86 151.368 1355.01 151.237 1355.31 147.672L1355.61 143.986L1363.56 143.293L1371.5 142.6V138.729C1371.5 134.88 1371.52 134.858 1375.5 134.858H1379.5V130.858V126.858H1384H1388.5V122.358V117.858H1396.5H1404.5V113.858V109.858H1409H1413.5V105.358V100.858H1422H1430.5V96.9869V93.116L1438.44 92.4229L1446.39 91.73L1446.69 88.044C1447 84.406 1447.06 84.354 1451.75 84.053L1456.5 83.7479V79.803V75.858H1464.5H1472.5V72.003V68.147L1479.25 67.5101C1482.96 67.1591 1488.59 66.8691 1491.75 66.8651L1497.5 66.858V62.858V58.858H1506H1514.5V54.858V50.858L1520.75 50.8509C1524.19 50.8469 1530.04 50.5569 1533.75 50.2059L1540.5 49.5689V46.356C1540.5 43.157 1540.53 43.1401 1546.65 42.5001C1550.03 42.1471 1557.68 41.858 1563.65 41.858H1574.5V37.858V33.858H1637H1699.5V37.858V41.858H1710.35C1716.32 41.858 1723.97 42.1471 1727.35 42.5001C1733.47 43.1401 1733.5 43.157 1733.5 46.356V49.5689L1740.25 50.2059C1743.96 50.5569 1749.81 50.8469 1753.25 50.8509L1759.5 50.858V54.858V58.858H1768H1776.5V62.858V66.858H1782.85C1786.35 66.858 1791.97 67.1471 1795.35 67.5001L1801.5 68.1429V72.0001V75.858H1810H1818.5V79.7291V83.5999L1826.44 84.293L1834.39 84.9859L1834.69 88.6719C1834.99 92.2369 1835.14 92.3679 1839.25 92.6649C1843.48 92.9719 1843.5 92.9919 1843.5 96.9149V100.858H1851.94H1860.39L1860.69 105.108C1861 109.337 1861.02 109.359 1865.25 109.665C1869.48 109.972 1869.5 109.992 1869.5 113.915V117.858H1877.44H1885.39L1885.69 122.108C1886 126.337 1886.02 126.359 1890.25 126.665C1894.48 126.972 1894.5 126.992 1894.5 130.915V134.858H1899H1903.5V138.858V142.858H1907.5C1911.48 142.858 1911.5 142.875 1911.5 146.754V150.65L1919.45 151.353L1927.39 152.057L1927.7 156.207C1928 160.321 1928.04 160.361 1932.25 160.665C1936.48 160.972 1936.5 160.992 1936.5 164.915C1936.5 168.839 1936.52 168.858 1940.44 168.858C1944.37 168.858 1944.39 168.879 1944.69 173.108C1944.99 177.219 1945.12 177.368 1948.69 177.665L1952.37 177.971L1953.06 185.915L1953.76 193.858H1958.13H1962.5V197.858V201.858H1966.5H1970.5V206.358V210.858H1974.5H1978.5V215.358V219.858H1982.43H1986.36L1987.06 227.858L1987.76 235.858H1991.63H1995.5V240.358V244.858H1999.41H2003.32L2004.03 253.358L2004.74 261.858H2008.62H2012.5V270.358V278.858H2016.36H2020.21L2020.86 285.005C2021.21 288.385 2021.5 293.758 2021.5 296.944V302.737L2025.25 303.048L2029 303.358L2029.29 312.108L2029.58 320.858H2033.54H2037.5V335.211C2037.5 343.106 2037.79 352.331 2038.14 355.711C2038.78 361.832 2038.8 361.858 2042 361.858H2045.21L2045.85 368.608C2046.2 372.321 2046.49 384.02 2046.49 394.608L2046.5 413.858H2050.5H2054.5V906.858V1399.86H2059H2063.5V1403.86V1407.86H2067.5H2071.5V1403.86V1399.86H2076H2080.5V990.858V581.858H2084C2087.48 581.858 2087.5 581.834 2087.5 577.358C2087.5 572.882 2087.48 572.858 2084 572.858H2080.5V564.358V555.858H2084H2087.5V509.858V463.858H2084H2080.5V443.02C2080.5 431.559 2080.2 410.634 2079.84 396.52L2079.18 370.858H2075.34H2071.5V352.005C2071.5 341.635 2071.21 330.385 2070.86 327.005C2070.22 320.884 2070.2 320.858 2067 320.858C2063.8 320.858 2063.78 320.832 2063.14 314.711C2062.79 311.331 2062.5 305.706 2062.5 302.211V295.858H2058.5H2054.5V286.858V277.858H2050.54H2046.58L2046.29 269.608L2046 261.358L2041.75 261.051L2037.5 260.743V252.301V243.858H2033.5H2029.5V235.858V227.858H2025.59H2021.68L2020.97 219.358L2020.26 210.858H2016.44C2012.65 210.858 2012.61 210.814 2012.31 206.608C2012.01 202.505 2011.87 202.347 2008.35 202.054L2004.7 201.749L2003.99 193.804L2003.29 185.858H1999.4H1995.5V181.358V176.858H1991H1986.5V172.858V168.858H1982.5H1978.5V164.358V159.858H1974.5H1970.5V155.858V151.858H1966H1961.5V147.858V143.858H1957.5H1953.5V139.358V134.858H1949H1944.5V130.858V126.858H1940.5H1936.5V122.358V117.858H1932H1927.5V113.858V109.858H1923.5C1919.51 109.858 1919.5 109.843 1919.5 105.948V102.038L1911 101.329L1902.5 100.621V96.7401C1902.5 92.8781 1902.48 92.858 1898.5 92.858C1894.52 92.858 1894.5 92.8379 1894.5 88.9759V85.095L1886 84.387L1877.5 83.678V79.7679V75.858H1873H1868.5V71.962V68.066L1860.55 67.3629L1852.61 66.659L1852.3 63.0089L1852 59.358L1843.75 59.0679L1835.5 58.7769V54.9359V51.095L1827 50.387L1818.5 49.678V45.7679V41.858H1810H1801.5V37.858V33.858H1795.15C1791.65 33.858 1786.03 33.5689 1782.65 33.2159C1776.51 32.5749 1776.5 32.565 1776.5 29.334V26.095L1768 25.387L1759.5 24.678V20.7679V16.858H1742.5H1725.5V12.971V9.08405L1700 8.34796L1674.5 7.61286V4.37799C1674.5 1.15199 1674.48 1.14106 1668.35 0.500062C1662.08 -0.155938 1612.84 -0.08492 1604.25 0.59308ZM1574.17 59.525C1573.8 59.891 1573.5 61.691 1573.5 63.525V66.858L1565.25 66.8619C1560.71 66.8639 1551.26 67.1589 1544.25 67.5159L1531.5 68.1671V72.012V75.858H1519H1506.5V79.713V83.5689L1499.75 84.2059C1496.04 84.5569 1490.41 84.8469 1487.25 84.8509L1481.5 84.858V88.858V92.858H1473H1464.5V96.7401V100.621L1456 101.329L1447.5 102.038V105.948V109.858H1443H1438.5V113.858V117.858H1430.56H1422.61L1422.31 122.108C1422 126.337 1421.98 126.359 1417.75 126.665C1413.52 126.972 1413.5 126.992 1413.5 130.915V134.858H1405.56H1397.61L1397.31 139.108C1397 143.337 1396.98 143.359 1392.75 143.665C1388.52 143.972 1388.5 143.992 1388.5 147.915V151.858H1384H1379.5V155.858V159.858H1375.5H1371.5V164.358V168.858H1367H1362.5V172.858V176.858H1358.5H1354.5V181.358V185.858H1350.5H1346.5V189.858V193.858H1342H1337.5V198.358V202.858H1333.5H1329.5V206.858C1329.5 210.84 1329.48 210.858 1325.6 210.858H1321.71L1321 218.858L1320.29 226.858H1316.4H1312.5V231.358V235.858H1308.5H1304.5V240.358V244.858H1300H1295.5V253.358V261.858H1291.6H1287.71L1287.01 269.804L1286.3 277.749L1282.65 278.054L1279 278.358L1278.71 286.608L1278.42 294.858H1274.46H1270.5V301.211C1270.5 304.706 1270.21 310.331 1269.86 313.711C1269.22 319.832 1269.2 319.858 1266 319.858H1262.79L1262.15 326.608C1261.8 330.321 1261.51 336.171 1261.51 339.608L1261.5 345.858H1257.5H1253.5L1253.49 357.108C1253.49 363.296 1253.2 370.721 1252.85 373.608C1252.23 378.775 1252.17 378.858 1248.86 378.858H1245.5V602.858V826.858H1249C1252.42 826.858 1252.5 826.953 1252.5 830.858V834.858H1260.91H1269.32L1270.03 826.358L1270.74 817.858H1274.62H1278.5V657.858V497.858H1274.5H1270.5V459.858V421.858H1274.5H1278.5V398.505C1278.5 385.66 1278.79 372.385 1279.14 369.005L1279.79 362.858H1283.14H1286.5L1286.51 356.608C1286.51 353.171 1286.8 347.321 1287.15 343.608L1287.79 336.858H1291.65H1295.5V324.358V311.858H1299.38H1303.26L1303.97 303.358L1304.68 294.858H1308.59H1312.5V286.358V277.858H1316.4H1320.29L1320.99 269.912L1321.7 261.967L1325.35 261.662C1328.87 261.369 1329.01 261.211 1329.31 257.108C1329.61 252.887 1329.64 252.858 1333.52 252.858H1337.42L1337.71 244.608L1338 236.358L1342.25 236.051C1346.48 235.744 1346.5 235.724 1346.5 231.801C1346.5 227.868 1346.51 227.858 1350.5 227.858H1354.5V223.358V218.858H1358.44C1362.37 218.858 1362.39 218.837 1362.69 214.608C1363 210.379 1363.02 210.357 1367.25 210.051C1371.48 209.744 1371.5 209.724 1371.5 205.801C1371.5 201.868 1371.51 201.858 1375.5 201.858H1379.5V197.858C1379.5 193.868 1379.51 193.858 1383.44 193.858C1387.37 193.858 1387.39 193.837 1387.69 189.608C1388 185.379 1388.02 185.357 1392.25 185.051C1396.48 184.744 1396.5 184.724 1396.5 180.801C1396.5 176.868 1396.51 176.858 1400.5 176.858H1404.5V172.858V168.858H1409H1413.5V164.358V159.858H1418H1422.5V155.858V151.858H1430.44H1438.39L1438.69 147.608C1439 143.379 1439.02 143.357 1443.25 143.051C1447.48 142.744 1447.5 142.724 1447.5 138.801V134.858H1456H1464.5V130.948V127.038L1473 126.329L1481.5 125.621V121.74V117.858H1489.5H1497.5V113.858V109.858H1503.85C1507.35 109.858 1512.95 109.571 1516.3 109.221L1522.4 108.584L1522.7 104.971L1523 101.358L1539.75 101.084L1556.5 100.81V96.834V92.858L1573.75 92.8541C1583.24 92.8521 1596.74 92.557 1603.75 92.2L1616.5 91.5489V88.2039V84.858H1633H1649.5V88.2039V91.5489L1662.25 92.2C1669.26 92.557 1682.76 92.8521 1692.25 92.8541L1709.5 92.858V96.858V100.858H1723.85C1731.75 100.858 1740.95 101.145 1744.3 101.495L1750.4 102.132L1750.7 105.745L1751 109.358L1759.75 109.647L1768.5 109.936V113.897V117.858H1776.5H1784.5V121.74V125.621L1793 126.329L1801.5 127.038V130.948V134.858H1810H1818.5V138.729V142.6L1826.44 143.293L1834.39 143.986L1834.69 147.672C1834.99 151.237 1835.14 151.368 1839.25 151.665C1843.46 151.97 1843.5 152.013 1843.5 155.797V159.621L1852 160.329L1860.5 161.038V164.948V168.858H1865H1869.5V172.858V176.858H1873.5C1877.49 176.858 1877.5 176.868 1877.5 180.801C1877.5 184.724 1877.52 184.744 1881.75 185.051C1885.98 185.357 1886 185.379 1886.31 189.608C1886.61 193.837 1886.63 193.858 1890.56 193.858C1894.49 193.858 1894.5 193.868 1894.5 197.858C1894.5 201.848 1894.51 201.858 1898.44 201.858C1902.37 201.858 1902.39 201.879 1902.69 206.108C1903 210.337 1903.02 210.359 1907.25 210.665C1911.48 210.972 1911.5 210.992 1911.5 214.915C1911.5 218.848 1911.51 218.858 1915.5 218.858H1919.5V223.358V227.858H1924H1928.5V231.858V235.858H1932.5H1936.5V240.358V244.858H1940.37H1944.24L1944.93 252.801L1945.63 260.745L1949.31 261.051L1953 261.358L1953.29 269.608L1953.58 277.858H1957.54H1961.5V282.358V286.858H1965.41H1969.32L1970.03 295.358L1970.74 303.858H1974.62H1978.5V316.358V328.858H1983H1987.5V345.858V362.858H1991.5H1995.5V388.358V413.858H1999.5H2003.5V906.858V1399.86H2008H2012.5V1403.86V1407.86H2016.5H2020.5V1403.86V1399.86H2025H2029.5L2029.5 902.108C2029.49 628.346 2029.2 398.62 2028.84 391.608L2028.19 378.858H2025H2021.81L2021.15 366.701C2020.79 360.015 2020.5 350.79 2020.5 346.201V337.858H2016.5H2012.5V331.005C2012.5 327.235 2012.21 321.385 2011.86 318.005C2011.22 311.861 2011.21 311.858 2007.95 311.858H2004.68L2003.97 303.358L2003.26 294.858H1999.38H1995.5V286.358V277.858H1991.6H1987.71L1987 269.858L1986.29 261.858H1982.4H1978.5V257.358V252.858H1974.54H1970.58L1970.29 244.608L1970 236.358L1965.75 236.051C1961.52 235.744 1961.5 235.724 1961.5 231.801C1961.5 227.868 1961.49 227.858 1957.5 227.858H1953.5V219.358V210.858H1949H1944.5V206.858V202.858H1940.5H1936.5V198.358V193.858H1932H1927.5V189.858V185.858H1923.5H1919.5V181.358V176.858H1915.5H1911.5V172.858V168.858H1907H1902.5V164.858V160.858H1898.5H1894.5V156.476V152.095L1886 151.387L1877.5 150.678V146.768C1877.5 142.873 1877.48 142.858 1873.5 142.858H1869.5V138.858V134.858H1865H1860.5V130.976V127.095L1852 126.387L1843.5 125.678V121.768V117.858H1839H1834.5V113.858V109.858H1826.56H1818.61L1818.31 105.608L1818 101.358L1809.75 101.068L1801.5 100.777V96.8179V92.858H1793H1784.5V89.003V85.147L1777.75 84.5101C1774.04 84.1591 1768.41 83.8691 1765.25 83.8651L1759.5 83.858V79.858V75.858H1747H1734.5V71.9649V68.0731L1717 67.3441L1699.5 66.6151V63.379C1699.5 60.152 1699.48 60.1411 1693.35 59.5001C1685.19 58.6471 1575.02 58.67 1574.17 59.525ZM1569.75 118.59C1565.68 118.957 1565.5 119.112 1565.5 122.301V125.629L1548.5 126.358L1531.5 127.087V130.973V134.858H1519.06H1506.61L1506.31 139.108L1506 143.358L1497.75 143.648L1489.5 143.939V147.898V151.858H1481H1472.5V155.801C1472.5 159.724 1472.48 159.744 1468.25 160.051C1464.14 160.348 1463.99 160.479 1463.69 164.044L1463.39 167.73L1455.44 168.423L1447.5 169.116V172.987V176.858H1443H1438.5V180.858V184.858H1434.5H1430.5V189.358V193.858H1422.56H1414.61L1414.31 198.108C1414 202.337 1413.98 202.359 1409.75 202.665C1405.52 202.972 1405.5 202.992 1405.5 206.915C1405.5 210.839 1405.48 210.858 1401.56 210.858C1397.63 210.858 1397.61 210.879 1397.31 215.108C1397 219.337 1396.98 219.359 1392.75 219.665C1388.52 219.972 1388.5 219.992 1388.5 223.915C1388.5 227.831 1388.47 227.858 1384.6 227.858H1380.71L1380 235.858L1379.29 243.858H1375.4H1371.5V248.358V252.858H1367.56C1363.63 252.858 1363.61 252.879 1363.31 257.108C1363 261.337 1362.98 261.359 1358.75 261.665L1354.5 261.973V269.915V277.858H1350.62H1346.74L1346.03 286.358L1345.32 294.858H1341.41H1337.5V299.358V303.858H1333.5H1329.5V316.358V328.858H1325.59H1321.68L1320.97 337.358L1320.26 345.858H1316.41H1312.55L1312.27 362.608L1312 379.358L1308.25 379.668L1304.5 379.979V389.758C1304.5 395.136 1304.2 408.384 1303.84 419.197L1303.18 438.858H1299.34H1295.5V514.358V589.858H1299.5H1303.5V682.858V775.858H1312H1320.5V771.358V766.858H1324.36H1328.21L1328.86 760.711C1329.21 757.331 1329.5 677.906 1329.5 584.211V413.858H1333.5H1337.5V403.005C1337.5 397.035 1337.79 389.385 1338.14 386.005C1338.78 379.884 1338.8 379.858 1342 379.858H1345.21L1345.85 373.108C1346.2 369.395 1346.49 363.77 1346.49 360.608L1346.5 354.858H1350.5H1354.5V341.858V328.858H1358.41H1362.32L1363.03 320.358L1363.74 311.858H1367.62H1371.5V307.358V302.858H1375.5H1379.5V294.858V286.858H1384H1388.5V282.358V277.858H1392.4H1396.29L1396.99 269.912L1397.7 261.967L1401.35 261.662C1404.87 261.369 1405.01 261.211 1405.31 257.108C1405.61 252.879 1405.63 252.858 1409.56 252.858C1413.49 252.858 1413.5 252.848 1413.5 248.858C1413.5 244.868 1413.51 244.858 1417.44 244.858C1421.37 244.858 1421.39 244.837 1421.69 240.608C1422 236.379 1422.02 236.357 1426.25 236.051C1430.47 235.745 1430.5 235.714 1430.5 231.858C1430.5 228.002 1430.53 227.971 1434.75 227.665C1438.86 227.368 1439.01 227.239 1439.31 223.665C1439.6 220.195 1439.84 219.953 1443.31 219.665C1446.87 219.368 1447.01 219.215 1447.31 215.148L1447.61 210.937L1455.81 210.648L1464 210.358L1464.31 206.108C1464.61 201.879 1464.63 201.858 1468.56 201.858C1472.49 201.858 1472.5 201.848 1472.5 197.858V193.858H1477H1481.5V189.948V186.038L1490 185.329L1498.5 184.621V181.379C1498.5 178.214 1498.63 178.121 1503.75 177.506C1506.64 177.159 1510.46 176.871 1512.25 176.867C1515.37 176.858 1515.5 176.702 1515.5 172.858V168.858H1523.5H1531.5V165.003V161.147L1538.25 160.51C1541.96 160.159 1547.81 159.869 1551.25 159.865L1557.5 159.858V155.858V151.858L1569.75 151.854C1576.49 151.852 1587.74 151.557 1594.75 151.2L1607.5 150.549V147.204V143.858H1633H1658.5V147.858V151.858H1683.5H1708.5V155.713V159.569L1715.25 160.206C1718.96 160.557 1726.61 160.847 1732.25 160.851L1742.5 160.858V164.858V168.858H1751H1759.5V172.801C1759.5 176.724 1759.52 176.744 1763.75 177.051C1767.84 177.347 1768.01 177.49 1768.3 180.975C1768.6 184.535 1768.69 184.602 1773.8 185.216C1776.66 185.56 1782.04 185.845 1785.75 185.849L1792.5 185.858V189.858V193.858H1797H1801.5V197.801C1801.5 201.724 1801.52 201.744 1805.75 202.051C1809.98 202.357 1810 202.379 1810.31 206.608L1810.61 210.858H1818.5H1826.39L1826.69 215.108C1827 219.337 1827.02 219.359 1831.25 219.665C1835.48 219.972 1835.5 219.992 1835.5 223.915C1835.5 227.848 1835.51 227.858 1839.5 227.858C1843.49 227.858 1843.5 227.868 1843.5 231.801C1843.5 235.724 1843.52 235.744 1847.75 236.051C1851.98 236.357 1852 236.379 1852.31 240.608C1852.61 244.837 1852.63 244.858 1856.56 244.858C1860.49 244.858 1860.5 244.868 1860.5 248.858C1860.5 252.848 1860.51 252.858 1864.44 252.858C1868.37 252.858 1868.39 252.879 1868.69 257.108C1869 261.337 1869.02 261.359 1873.25 261.665C1877.48 261.972 1877.5 261.992 1877.5 265.915C1877.5 269.848 1877.51 269.858 1881.5 269.858H1885.5V276.211C1885.5 279.706 1885.79 285.331 1886.14 288.711L1886.78 294.858H1890.64C1894.47 294.858 1894.5 294.892 1894.5 298.801C1894.5 302.724 1894.52 302.744 1898.75 303.051C1902.98 303.357 1903 303.379 1903.31 307.608C1903.6 311.702 1903.74 311.858 1906.97 311.858H1910.32L1911.03 320.358L1911.74 328.858H1915.62H1919.5V335.211C1919.5 338.706 1919.79 344.307 1920.14 347.659L1920.77 353.754L1924.39 354.056L1928 354.358L1928.27 371.108L1928.55 387.858H1932.52H1936.5V396.358V404.858H1940.5H1944.5L1944.51 895.608C1944.51 1165.52 1944.8 1389.4 1945.15 1393.11L1945.79 1399.86H1949.64C1953.48 1399.86 1953.5 1399.88 1953.5 1403.86V1407.86H1961.5H1969.5V1403.86V1399.86H1974H1978.5V906.358V412.858H1974.5H1970.5V394.005C1970.5 383.635 1970.21 372.409 1969.86 369.057L1969.23 362.962L1965.61 362.66L1962 362.358L1961.71 354.108L1961.42 345.858H1957.46H1953.5V332.858V319.858H1949.64H1945.79L1945.14 313.711C1944.79 310.331 1944.5 304.706 1944.5 301.211V294.858H1940.5H1936.5V290.858C1936.5 286.878 1936.48 286.858 1932.62 286.858H1928.74L1928.03 278.358L1927.32 269.858H1923.91C1920.6 269.858 1920.5 269.743 1920.5 265.858V261.858H1916.09H1911.68L1910.97 253.358L1910.26 244.858H1906.38H1902.5V236.358V227.858H1898.5C1894.51 227.858 1894.5 227.848 1894.5 223.915C1894.5 219.992 1894.48 219.972 1890.25 219.665C1886.02 219.359 1886 219.337 1885.69 215.108C1885.39 210.879 1885.37 210.858 1881.44 210.858C1877.53 210.858 1877.5 210.829 1877.5 206.976V203.095L1869 202.387L1860.5 201.678V197.768V193.858H1852H1843.5V189.858V185.858H1839.5H1835.5V181.358V176.858H1831H1826.5V172.858V168.858H1822.5C1818.53 168.858 1818.5 168.834 1818.5 165.003V161.147L1811.75 160.51C1808.04 160.159 1802.41 159.869 1799.25 159.865L1793.5 159.858V155.858V151.858H1789H1784.5V147.858V143.858H1778.15C1774.65 143.858 1769.03 143.569 1765.65 143.216L1759.5 142.573V138.716V134.858H1747H1734.5V130.973V127.087L1717.5 126.358L1700.5 125.629V121.743V117.858L1637.25 118.033C1602.46 118.129 1572.09 118.38 1569.75 118.59ZM1582.5 172.858V176.858H1565.5H1548.5V180.768V184.678L1540 185.387L1531.5 186.095V189.976V193.858H1523H1514.5V197.768V201.678L1506 202.387L1497.5 203.095V206.976V210.858H1489.5H1481.5V214.801C1481.5 218.724 1481.48 218.744 1477.25 219.051C1473.02 219.357 1473 219.379 1472.69 223.608L1472.39 227.858H1467.94H1463.5V231.858V235.858H1459.5C1455.52 235.858 1455.5 235.875 1455.5 239.754V243.65L1447.6 244.35L1439.69 245.049L1438.99 252.954L1438.29 260.858H1434.4H1430.5V265.358V269.858H1426H1421.5V273.858V277.858H1417.5H1413.5V282.358V286.858H1409.6H1405.71L1405.01 294.804L1404.3 302.749L1400.65 303.054C1397.13 303.347 1396.99 303.505 1396.69 307.608C1396.39 311.837 1396.37 311.858 1392.44 311.858H1388.5V320.358V328.858H1384.59H1380.68L1379.97 337.358L1379.26 345.858H1375.38H1371.5V358.358V370.858H1367.61H1363.73L1363 387.858L1362.27 404.858H1358.38H1354.49L1354.75 565.108L1355 725.358L1359 725.694C1361.2 725.879 1366.66 725.731 1371.14 725.364L1379.28 724.697L1379.98 716.278L1380.68 707.858H1384.09H1387.5V632.358V556.858H1384H1380.5V497.858V438.858H1383.85H1387.21L1387.85 432.108C1388.2 428.395 1388.49 416.921 1388.49 406.608L1388.5 387.858H1392.5H1396.5V375.358V362.858H1400.38H1404.26L1404.97 354.358L1405.68 345.858H1409.59H1413.5V337.358V328.858H1417.38H1421.26L1421.97 320.358L1422.68 311.858H1426.59H1430.5V307.358V302.858H1434.5H1438.5V298.858C1438.5 294.876 1438.52 294.858 1442.4 294.858H1446.29L1447 286.858L1447.71 278.858H1451.6H1455.5V274.358V269.858H1460H1464.5V265.858C1464.5 261.868 1464.51 261.858 1468.44 261.858C1472.37 261.858 1472.39 261.837 1472.69 257.608L1473 253.358L1481.25 253.068L1489.5 252.777V248.318V243.858H1494H1498.5V239.858V235.858H1502.5H1506.5V231.858V227.858H1515H1523.5V224V220.143L1529.65 219.5C1533.03 219.147 1538.65 218.858 1542.15 218.858H1548.5V214.888V210.918L1561.25 210.638L1574 210.358L1574.3 206.76L1574.6 203.161L1587.3 202.514C1594.29 202.158 1605.51 201.864 1612.25 201.862L1624.5 201.858V197.858V193.858H1633H1641.5V197.858V201.858L1653.75 201.862C1660.49 201.864 1671.74 202.159 1678.75 202.516L1691.5 203.167V206.37C1691.5 209.557 1691.53 209.576 1697.65 210.216C1701.03 210.569 1706.88 210.858 1710.65 210.858H1717.5V214.858V218.858H1723.85C1727.35 218.858 1732.97 219.147 1736.35 219.5L1742.5 220.143V224V227.858H1751H1759.5V231.801C1759.5 235.724 1759.52 235.744 1763.75 236.051C1767.85 236.347 1768.01 236.485 1768.3 240.009L1768.61 243.659L1776.55 244.363L1784.5 245.066V248.962V252.858H1789H1793.5V256.858V260.858H1797.5H1801.5V265.358V269.858H1806H1810.5V273.754V277.65L1818.5 278.358L1826.5 279.066V282.962C1826.5 286.831 1826.53 286.858 1830.44 286.858C1834.37 286.858 1834.39 286.879 1834.69 291.108C1835 295.32 1835.04 295.361 1839.15 295.661L1843.3 295.963L1844.01 303.911L1844.71 311.858H1848.6H1852.5V316.358V320.858H1856.5H1860.5V328.858V336.858H1864.41H1868.32L1869.03 345.358L1869.74 353.858H1873.62H1877.5V366.858V379.858H1881.5H1885.5V388.201C1885.5 392.79 1885.79 401.992 1886.15 408.65L1886.8 420.755L1890.4 421.057L1894 421.358L1894.25 910.608L1894.5 1399.86H1898.5C1902.5 1399.86 1902.5 1399.86 1902.5 1403.86V1407.86H1907H1911.5V1403.86V1399.86H1915.5H1919.5L1919.5 1124.11C1919.5 972.446 1919.8 822.37 1920.16 790.608L1920.83 732.858H1924.16H1927.5V602.358V471.858H1924.14H1920.79L1920.14 465.711C1919.79 462.331 1919.5 445.231 1919.5 427.711V395.858H1915.61H1911.73L1911 378.858L1910.27 361.858H1907.03C1903.86 361.858 1903.76 361.734 1903.15 356.608C1902.8 353.721 1902.51 348.321 1902.51 344.608L1902.5 337.858H1898.62H1894.74L1894.03 329.413L1893.33 320.969L1889.66 320.663C1886.12 320.368 1885.99 320.214 1885.69 316.108C1885.39 311.879 1885.37 311.858 1881.44 311.858H1877.5V303.358V294.858H1873H1868.5V290.858V286.858H1864.5H1860.5V282.358V277.858H1856.5H1852.5V273.858V269.858H1848H1843.5V265.358V260.858H1839.5H1835.5V256.858V252.858H1831.5H1827.5V248.858V244.858H1823H1818.5V240.358V235.858H1814H1809.5V231.962V228.066L1801.5 227.358L1793.5 226.65V222.754V218.858H1789H1784.5V214.915C1784.5 210.992 1784.48 210.972 1780.25 210.665C1776.12 210.367 1775.99 210.248 1775.69 206.608L1775.38 202.858H1767.44H1759.5V198.358V193.858H1751H1742.5V189.858V185.858H1734H1725.5V182V178.143L1719.35 177.5C1715.97 177.147 1706.52 176.858 1698.35 176.858H1683.5V172.858V168.858H1633H1582.5V172.858ZM1599.75 227.533L1574.5 227.892V231.875V235.858L1568.25 235.865C1564.81 235.869 1558.96 236.159 1555.25 236.51L1548.5 237.147V241.003V244.858H1540H1531.5V248.858V252.858H1527.5C1523.52 252.858 1523.5 252.873 1523.5 256.768V260.678L1515 261.387L1506.5 262.095V265.976V269.858H1502H1497.5V273.858V277.858H1493.5H1489.5V282.358V286.858H1485H1480.5V290.858V294.858H1476.5C1472.51 294.858 1472.5 294.868 1472.5 298.801C1472.5 302.724 1472.48 302.744 1468.25 303.051C1464.02 303.357 1464 303.379 1463.69 307.608C1463.39 311.837 1463.37 311.858 1459.44 311.858H1455.5V316.358V320.858H1451.5H1447.5V324.858C1447.5 328.843 1447.49 328.858 1443.59 328.858H1439.68L1438.97 337.358L1438.26 345.858H1434.38H1430.5V354.358V362.858H1426.59H1422.68L1421.97 371.358L1421.26 379.858H1418.02C1414.79 379.858 1414.78 379.873 1414.14 386.005C1413.79 389.385 1413.5 396.81 1413.5 402.505V412.858H1409.5H1405.5V552.358V691.858H1418H1430.5V687.358V682.858H1434.5H1438.5L1438.51 554.608C1438.51 484.071 1438.8 423.321 1439.15 419.608L1439.79 412.858H1443C1446.2 412.858 1446.22 412.832 1446.86 406.711C1447.21 403.331 1447.5 395.906 1447.5 390.211V379.858H1451.5H1455.5V371.358V362.858H1459.44C1463.37 362.858 1463.39 362.837 1463.69 358.608C1464 354.379 1464.02 354.357 1468.25 354.051L1472.5 353.743V345.301V336.858H1476.5H1480.5V332.858V328.858H1485H1489.5V324.358V319.858H1493.4H1497.29L1497.99 311.954L1498.69 304.049L1506.6 303.35L1514.5 302.65V298.754V294.858H1519H1523.5V290.858V286.858H1527.5C1531.48 286.858 1531.5 286.843 1531.5 282.948V279.038L1540 278.329L1548.5 277.621V273.74V269.858H1561H1573.5V266.003V262.147L1580.25 261.51C1583.96 261.159 1589.81 260.869 1593.25 260.865L1599.5 260.858V256.858V252.858H1630.85C1648.1 252.858 1664.97 253.147 1668.35 253.5L1674.5 254.143V257.5V260.858L1680.75 260.865C1684.19 260.869 1690.04 261.159 1693.75 261.51L1700.5 262.147V266.003V269.858H1713H1725.5V273.74V277.621L1734 278.329L1742.5 279.038V282.948V286.858H1747H1751.5V290.858V294.858H1755.5C1759.48 294.858 1759.5 294.875 1759.5 298.754V302.65L1767.5 303.358L1775.5 304.066V307.962V311.858H1780H1784.5V316.358V320.858H1788.4H1792.29L1793 328.858L1793.71 336.858H1797.6H1801.5V341.358V345.858H1806H1810.5V350.358V354.858H1814.5H1818.5V362.858V370.858H1822.35H1826.21L1826.85 377.608C1827.2 381.321 1827.49 386.946 1827.49 390.108L1827.5 395.858H1831.5H1835.5V893.858V1391.86H1839.5H1843.5V1395.86V1399.86H1847.5H1851.5V1403.86V1407.86H1856H1860.5V1403.86C1860.5 1399.88 1860.52 1399.86 1864.36 1399.86H1868.21L1868.86 1393.71C1869.71 1385.58 1869.69 448.901 1868.84 423.519L1868.18 403.858H1864.98C1861.86 403.858 1861.76 403.717 1861.15 398.608C1860.8 395.721 1860.51 388.52 1860.51 382.608L1860.5 371.858H1856.62H1852.74L1852.03 363.413L1851.33 354.969L1847.66 354.663L1844 354.358L1843.71 346.108L1843.42 337.858H1839.46H1835.5V333.358V328.858H1831H1826.5V324.358V319.858H1822.5H1818.5V315.858C1818.5 311.876 1818.48 311.858 1814.6 311.858H1810.71L1810.01 303.954L1809.31 296.049L1801.4 295.35L1793.5 294.65V290.754V286.858H1789H1784.5V282.358V277.858H1780.5H1776.5V273.858V269.858H1772H1767.5V265.948V262.038L1759 261.329L1750.5 260.621V256.74V252.858H1742.5H1734.5V248.976V245.095L1726.05 244.391L1717.61 243.688L1717.3 240.023L1717 236.358L1708.25 236.069L1699.5 235.78V231.819V227.858L1680.75 227.855C1670.44 227.854 1653.68 227.7 1643.5 227.513C1633.32 227.326 1613.64 227.335 1599.75 227.533ZM1615.5 282.216V285.573L1609.35 286.216C1605.97 286.569 1598.55 286.858 1592.85 286.858H1582.5V290.858V294.858H1576.15C1572.65 294.858 1567.03 295.147 1563.65 295.5L1557.5 296.143V300V303.858H1553H1548.5V307.729V311.6L1540.56 312.293L1532.61 312.986L1532.31 316.672C1532.01 320.237 1531.86 320.368 1527.75 320.665C1523.52 320.972 1523.5 320.992 1523.5 324.915V328.858H1519H1514.5V332.858V336.858H1510.5H1506.5V341.358V345.858H1502.56C1498.63 345.858 1498.61 345.879 1498.31 350.108C1498 354.337 1497.98 354.359 1493.75 354.665L1489.5 354.973V362.915V370.858H1485.5H1481.5V375.358V379.858H1477.64H1473.79L1473.14 386.005C1472.79 389.385 1472.5 395.01 1472.5 398.505V404.858H1468.5H1464.5V419.711C1464.5 427.881 1464.21 437.331 1463.86 440.711L1463.22 446.858H1459.86H1456.5V476.358V505.858H1459.85H1463.21L1463.85 512.608C1464.2 516.321 1464.49 552.546 1464.49 593.108L1464.5 666.858H1468.5C1472.4 666.858 1472.5 666.941 1472.5 670.358C1472.5 673.766 1472.6 673.858 1476.44 673.858C1480.27 673.858 1480.39 673.754 1480.69 670.108C1480.99 666.468 1481.12 666.349 1485.25 666.051L1489.5 665.743V547.801V429.858H1493.5H1497.5V423.505C1497.5 420.01 1497.79 414.385 1498.14 411.005C1498.79 404.861 1498.79 404.858 1502.05 404.858H1505.32L1506.03 396.358L1506.74 387.858H1510.58H1514.42L1514.71 379.608L1515 371.358L1519.25 371.051C1523.48 370.744 1523.5 370.724 1523.5 366.801C1523.5 362.868 1523.51 362.858 1527.5 362.858H1531.5V358.358V353.858H1535.5H1539.5V349.858V345.858H1544H1548.5V341.358V336.858H1553H1557.5V332.858V328.858H1566H1574.5V324.858V320.858L1580.25 320.851C1583.41 320.847 1589.04 320.557 1592.75 320.206L1599.5 319.569V315.701V311.834L1637.25 312.096L1675 312.358L1675.31 316.108L1675.62 319.858L1681.31 319.865C1684.44 319.869 1690.04 320.159 1693.75 320.51L1700.5 321.147V325.003V328.858H1709H1717.5V332.801C1717.5 336.724 1717.52 336.744 1721.75 337.051C1725.86 337.348 1726.01 337.479 1726.31 341.044L1726.61 344.73L1734.56 345.423L1742.5 346.116V349.987C1742.5 353.827 1742.53 353.858 1746.44 353.858C1750.37 353.858 1750.39 353.879 1750.69 358.108C1751 362.337 1751.02 362.359 1755.25 362.665L1759.5 362.973V370.915V378.858H1763.5H1767.5V383.358V387.858H1772H1776.5V400.358V412.858H1780.5H1784.5L1784.51 427.608C1784.51 435.721 1784.8 445.395 1785.15 449.108L1785.79 455.858H1789.15H1792.5V569.858V683.858H1789C1785.58 683.858 1785.5 683.953 1785.5 687.858C1785.5 691.763 1785.58 691.858 1789 691.858C1792.42 691.858 1792.5 691.953 1792.5 695.858C1792.5 699.763 1792.42 699.858 1789 699.858H1785.5V708.358V716.858H1789H1792.5V792.358V867.858H1789H1785.5V1129.36V1390.86H1788.88H1792.26L1792.97 1399.36L1793.68 1407.86H1801.59H1809.5V1403.86V1399.86H1814H1818.5V913.005C1818.5 645.235 1818.21 423.385 1817.86 420.005C1817.22 413.884 1817.2 413.858 1814 413.858H1810.79L1810.15 407.108C1809.8 403.395 1809.51 397.546 1809.51 394.108L1809.5 387.858H1805.5H1801.5V383.358V378.858H1797.6H1793.71L1793 370.858L1792.29 362.858H1788.4H1784.5V358.358V353.858H1780.56C1776.63 353.858 1776.61 353.837 1776.31 349.608C1776.01 345.497 1775.88 345.348 1772.31 345.051L1768.63 344.745L1767.93 336.801L1767.24 328.858H1759.43H1751.61L1751.31 324.608C1751 320.379 1750.98 320.357 1746.75 320.051C1742.52 319.744 1742.5 319.724 1742.5 315.801V311.858H1738H1733.5V307.858V303.858H1725.5H1717.5V299.933V296.008L1708.5 295.304L1699.5 294.6V290.729V286.858H1683H1666.5V282.858V278.858H1641H1615.5V282.216ZM1633.5 332.858V336.858H1624.66C1619.79 336.858 1610.37 337.151 1603.71 337.509L1591.6 338.16L1591.3 341.759L1591 345.358L1582.75 345.648L1574.5 345.939V349.898V353.858H1570H1565.5V357.801C1565.5 361.724 1565.48 361.744 1561.25 362.051C1557.02 362.357 1557 362.379 1556.69 366.608C1556.39 370.837 1556.37 370.858 1552.44 370.858H1548.5V375.358V379.858H1544.5H1540.5V383.858V387.858H1536H1531.5V396.358V404.858H1527.5H1523.5V411.211C1523.5 414.706 1523.21 420.331 1522.86 423.711C1522.22 429.825 1522.2 429.858 1519.02 429.858H1515.82L1515.16 449.519C1514.32 474.703 1514.31 634.19 1515.15 643.108L1515.79 649.858H1519.65C1523.49 649.858 1523.5 649.874 1523.5 653.915V657.973L1527.75 657.665C1531.88 657.367 1532.01 657.248 1532.31 653.608C1532.61 649.962 1532.73 649.858 1536.56 649.858H1540.5V645.358V640.858H1544.5H1548.5V531.358V421.858H1552.38H1556.26L1556.97 413.358L1557.68 404.858H1561.59H1565.5V400.358V395.858H1569.5H1573.5V391.858V387.858H1578H1582.5V383.358V378.858H1586.44C1590.27 378.858 1590.39 378.754 1590.69 375.108L1591 371.358L1603.75 371.078L1616.5 370.798V366.828V362.858H1633.5H1650.5V366.858V370.858H1667H1683.5V375.358V379.858H1688H1692.5V383.858V387.858H1696.5C1700.49 387.858 1700.5 387.868 1700.5 391.801C1700.5 395.724 1700.52 395.744 1704.75 396.051C1708.98 396.357 1709 396.379 1709.31 400.608C1709.61 404.837 1709.63 404.858 1713.56 404.858H1717.5V409.358V413.858H1721.5H1725.5V419.711C1725.5 422.931 1725.79 428.307 1726.14 431.659L1726.77 437.754L1730.39 438.056L1734 438.358L1734.25 919.108L1734.5 1399.86H1738.5C1742.5 1399.86 1742.5 1399.86 1742.5 1403.86V1407.86H1750.5H1758.5V1403.86V1399.86H1763H1767.5V923.358V446.858H1763.5H1759.5V430.358V413.858H1755.62H1751.74L1751.03 405.358L1750.32 396.858H1746.41H1742.5V392.358V387.858H1738.5H1734.5V383.858V379.858H1730H1725.5V375.358V370.858H1721.5C1717.51 370.858 1717.5 370.848 1717.5 366.915C1717.5 362.992 1717.48 362.972 1713.25 362.665C1709.02 362.359 1709 362.337 1708.69 358.108L1708.39 353.858H1700.44H1692.5V349.976V346.095L1684 345.387L1675.5 344.678V341.413V338.147L1668.75 337.51C1665.04 337.159 1657.39 336.869 1651.75 336.865L1641.5 336.858V332.858V328.858H1637.5H1633.5V332.858ZM1616.31 392.108L1616 396.358L1607.75 396.648L1599.5 396.939V400.898V404.858H1595H1590.5V408.858V412.858H1586.5H1582.5V417.358V421.858H1578.64H1574.79L1574.14 428.005C1573.79 431.385 1573.5 438.81 1573.5 444.505V454.858H1569.5H1565.5V547.858V640.858H1570H1574.5V644.858V648.858H1582.5H1590.5V644.858V640.858H1594.5H1598.5L1598.5 552.608C1598.51 504.071 1598.8 458.62 1599.16 451.608L1599.81 438.858H1603.65H1607.5V434.358V429.858H1612H1616.5V426.012V422.167L1629 421.533C1635.88 421.185 1647.12 421.185 1654 421.533L1666.5 422.167V426.012C1666.5 429.818 1666.54 429.858 1670.41 429.858H1674.32L1675.03 438.358L1675.74 446.858H1679.62H1683.5V923.358V1399.86H1688H1692.5V1403.86V1407.86H1696.5H1700.5V1403.86V1399.86H1705H1709.5V1395.86C1709.5 1391.95 1709.58 1391.86 1713 1391.86H1716.5V923.858V455.858H1713.15H1709.79L1709.15 449.108C1708.8 445.395 1708.51 439.546 1708.51 436.108L1708.5 429.858H1704.54H1700.58L1700.29 421.608L1700 413.358L1695.75 413.051C1691.52 412.744 1691.5 412.724 1691.5 408.801C1691.5 404.868 1691.49 404.858 1687.5 404.858C1683.52 404.858 1683.5 404.838 1683.5 400.976V397.095L1675 396.387L1666.5 395.678V391.768V387.858H1641.56H1616.61L1616.31 392.108ZM1599.25 674.607L1573.5 674.892V678.875V682.858H1552.5H1531.5V686.713V690.569L1524.75 691.206C1521.04 691.557 1513.39 691.847 1507.75 691.851L1497.5 691.858V695.858V699.858H1485H1472.5V703.768V707.678L1464 708.387L1455.5 709.095V712.976V716.858H1447H1438.5V720.818V724.777L1430.25 725.068L1422 725.358L1421.7 729.009L1421.39 732.659L1413.45 733.363L1405.5 734.066V737.962V741.858H1401H1396.5V745.768V749.678L1388 750.387L1379.5 751.095V754.976C1379.5 758.838 1379.48 758.858 1375.5 758.858C1371.52 758.858 1371.5 758.875 1371.5 762.754V766.65L1363.5 767.358L1355.5 768.066V771.962V775.858H1351H1346.5V779.801C1346.5 783.724 1346.48 783.744 1342.25 784.051C1338.02 784.357 1338 784.379 1337.69 788.608C1337.39 792.837 1337.37 792.858 1333.44 792.858C1329.52 792.858 1329.5 792.877 1329.5 796.801C1329.5 800.724 1329.48 800.744 1325.25 801.051C1321.02 801.357 1321 801.379 1320.69 805.608C1320.39 809.837 1320.37 809.858 1316.44 809.858C1312.52 809.858 1312.5 809.877 1312.5 813.801C1312.5 817.724 1312.48 817.744 1308.25 818.051C1304.12 818.349 1303.99 818.468 1303.69 822.108C1303.39 825.754 1303.27 825.858 1299.44 825.858H1295.5V830.358V834.858H1291.56C1287.63 834.858 1287.61 834.879 1287.31 839.108C1287 843.337 1286.98 843.359 1282.75 843.665L1278.5 843.973V851.915V859.858H1274.5H1270.5V864.358V868.858H1266.56C1262.63 868.858 1262.61 868.879 1262.31 873.108C1262 877.337 1261.98 877.359 1257.75 877.665L1253.5 877.973V885.915V893.858H1249.62H1245.74L1245.03 902.358L1244.32 910.858H1240.41H1236.5V919.358V927.858H1232.54H1228.58L1228.29 936.108L1228 944.358L1224.39 944.66L1220.77 944.962L1220.14 951.057C1219.79 954.409 1219.5 960.01 1219.5 963.505V969.858H1215.5H1211.5V980.211C1211.5 985.906 1211.21 993.307 1210.86 996.659L1210.23 1002.75L1206.61 1003.06L1203 1003.36L1202.73 1020.11L1202.45 1036.86H1198.48H1194.5V1050.2C1194.5 1057.54 1194.21 1069.02 1193.85 1075.7L1193.19 1087.86H1189.85H1186.5V1239.86V1391.86H1190.5H1194.5V1395.86V1399.86H1198.5H1202.5V1403.86V1407.86H1207H1211.5V1403.86V1399.86H1215.5H1219.5L1219.51 1242.11C1219.51 1155.35 1219.8 1081.32 1220.15 1077.61L1220.79 1070.86H1224.15H1227.5L1227.51 1052.11C1227.51 1041.8 1227.8 1030.32 1228.15 1026.61L1228.79 1019.86H1232.65H1236.5V1003.36V986.858H1240.5H1244.5L1244.51 980.608C1244.51 977.171 1244.8 971.321 1245.15 967.608L1245.79 960.858H1249.65H1253.5V952.858V944.858H1257.5H1261.5V936.358V927.858H1265.41H1269.32L1270.03 919.358L1270.74 910.858H1274.62H1278.5V902.358V893.858H1283H1287.5V889.358V884.858H1291.5H1295.5V876.915V868.973L1299.75 868.665C1303.98 868.359 1304 868.337 1304.31 864.108C1304.61 859.879 1304.63 859.858 1308.56 859.858C1312.49 859.858 1312.5 859.848 1312.5 855.858V851.858H1316.5H1320.5V847.358V842.858H1325H1329.5V838.858V834.858H1333.5H1337.5V830.358V825.858H1341.5H1345.5V821.858V817.858H1349.94H1354.39L1354.69 813.608C1354.99 809.495 1355.12 809.348 1358.69 809.051C1362.16 808.763 1362.4 808.521 1362.69 805.051C1362.99 801.477 1363.14 801.348 1367.25 801.051C1371.48 800.744 1371.5 800.724 1371.5 796.801V792.858H1376H1380.5V788.962V785.066L1388.5 784.358L1396.5 783.65V779.754V775.858H1401H1405.5V771.962V768.066L1413.5 767.358L1421.5 766.65V762.754V758.858H1430H1438.5V754.976V751.095L1447 750.387L1455.5 749.678V745.768V741.858H1464H1472.5V737.976V734.095L1481 733.387L1489.5 732.678V729.413V726.147L1496.25 725.51C1499.96 725.159 1505.81 724.869 1509.25 724.865L1515.5 724.858V720.858V716.858H1532H1548.5V713.012V709.167L1561.25 708.516C1568.26 708.159 1581.54 707.864 1590.75 707.862L1607.5 707.858V703.858V699.858H1628.5H1649.5V687.5V675.143L1643.35 674.5C1639.97 674.147 1634.46 673.963 1631.1 674.09C1627.75 674.218 1613.41 674.451 1599.25 674.607ZM1578.25 725.605L1565.5 725.918V729.245V732.573L1559.35 733.216C1555.97 733.569 1548.32 733.858 1542.35 733.858H1531.5V737.858V741.858H1525.15C1521.65 741.858 1516.03 742.147 1512.65 742.5C1506.53 743.14 1506.5 743.156 1506.5 746.358C1506.5 749.56 1506.47 749.576 1500.35 750.216C1496.97 750.569 1491.35 750.858 1487.85 750.858H1481.5V754.858V758.858H1473H1464.5V762.801C1464.5 766.724 1464.48 766.744 1460.25 767.051C1456.02 767.357 1456 767.379 1455.69 771.608L1455.39 775.858H1446.94H1438.5V779.754V783.65L1430.55 784.353L1422.61 785.057L1422.3 788.707C1422.01 792.231 1421.85 792.369 1417.75 792.665C1413.55 792.97 1413.5 793.015 1413.5 796.786V800.6L1405.56 801.293L1397.61 801.986L1397.31 805.672C1397.01 809.237 1396.86 809.368 1392.75 809.665C1388.52 809.972 1388.5 809.992 1388.5 813.915V817.858H1384H1379.5V821.858V825.858H1375.5H1371.5V830.358V834.858H1367H1362.5V838.858V842.858H1358.5H1354.5V847.358V851.858H1350.5C1346.51 851.858 1346.5 851.868 1346.5 855.801C1346.5 859.724 1346.48 859.744 1342.25 860.051C1338.02 860.357 1338 860.379 1337.69 864.608C1337.39 868.816 1337.35 868.858 1333.55 868.858H1329.71L1329.01 876.804L1328.3 884.749L1324.65 885.054C1321.13 885.347 1320.99 885.505 1320.69 889.608C1320.39 893.837 1320.37 893.858 1316.44 893.858H1312.5V898.358V902.858H1308.59H1304.68L1303.97 911.358L1303.26 919.858H1299.38H1295.5V927.858V935.858H1291.62H1287.74L1287.03 944.358L1286.32 952.858H1282.41H1278.5V961.358V969.858H1274.5H1270.5V976.211C1270.5 979.706 1270.21 985.331 1269.86 988.711C1269.22 994.832 1269.2 994.858 1266 994.858H1262.79L1262.15 1001.61C1261.8 1005.32 1261.51 1011.17 1261.51 1014.61L1261.5 1020.86H1257.5H1253.5V1037.36V1053.86H1249.5H1245.5V1222.86V1391.86H1249.5H1253.5V1395.86V1399.86H1257.5H1261.5V1403.86V1407.86H1266H1270.5V1403.86V1399.86H1274.5H1278.5V1241.51C1278.5 1154.41 1278.79 1080.39 1279.14 1077.01L1279.79 1070.86H1283.14H1286.5L1286.5 1062.61C1286.51 1058.07 1286.8 1048.62 1287.16 1041.61L1287.81 1028.86H1291.65H1295.5V1011.86V994.858H1299.35H1303.21L1303.85 988.108C1304.2 984.395 1304.49 978.77 1304.49 975.608L1304.5 969.858H1308.5H1312.5V961.358V952.858H1316.38H1320.26L1320.97 944.358L1321.68 935.858H1325.59H1329.5V927.858V919.858H1333.45H1337.39L1337.7 915.108C1338 910.429 1338.05 910.353 1341.65 910.054L1345.3 909.749L1346.01 901.804L1346.71 893.858H1350.55C1354.35 893.858 1354.39 893.816 1354.69 889.608C1354.99 885.483 1355.11 885.349 1358.75 885.048C1362.4 884.746 1362.5 884.628 1362.5 880.798V876.858H1367H1371.5V872.358V867.858H1375.5H1379.5V863.858C1379.5 859.876 1379.52 859.858 1383.4 859.858H1387.29L1387.99 851.954L1388.69 844.049L1396.6 843.35L1404.5 842.65V838.754V834.858H1409H1413.5V830.358V825.858H1418H1422.5V821.858V817.858H1430.44H1438.39L1438.69 813.608C1439 809.379 1439.02 809.357 1443.25 809.051C1447.48 808.744 1447.5 808.724 1447.5 804.801V800.858H1456H1464.5V796.858V792.858H1472.5H1480.5V788.964V785.07L1489.5 784.358L1498.5 783.646V779.752V775.858H1511H1523.5V772V768.143L1529.65 767.5C1533.03 767.147 1540.43 766.858 1546.09 766.858H1556.38L1556.69 763.108L1557 759.358L1578.25 759.088L1599.5 758.818V754.838V750.858H1620.5H1641.5V746.858V742.858H1645.5H1649.5V734.5V726.143L1643.35 725.5C1637.48 724.887 1605.44 724.939 1578.25 725.605ZM1590.5 779.858V783.858L1582.25 783.862C1577.71 783.864 1568.26 784.159 1561.25 784.516L1548.5 785.167V789.012V792.858H1536H1523.5V796.74V800.621L1515 801.329L1506.5 802.038V805.358V808.678L1498 809.387L1489.5 810.095V813.976V817.858H1481H1472.5V821.754V825.65L1464.5 826.358L1456.5 827.066V830.962V834.858H1452H1447.5V838.801C1447.5 842.724 1447.48 842.744 1443.25 843.051C1439.15 843.347 1438.99 843.485 1438.7 847.009L1438.39 850.659L1430.5 851.358L1422.6 852.057L1422.3 856.207C1422 860.321 1421.96 860.361 1417.75 860.665C1413.52 860.972 1413.5 860.992 1413.5 864.915C1413.5 868.848 1413.49 868.858 1409.5 868.858C1405.51 868.858 1405.5 868.868 1405.5 872.801C1405.5 876.724 1405.48 876.744 1401.25 877.051C1397.02 877.357 1397 877.379 1396.69 881.608C1396.39 885.837 1396.37 885.858 1392.44 885.858C1388.51 885.858 1388.5 885.868 1388.5 889.858C1388.5 893.843 1388.48 893.858 1384.59 893.858H1380.68L1379.97 902.358L1379.26 910.858H1375.38C1371.52 910.858 1371.5 910.878 1371.5 914.858C1371.5 918.848 1371.49 918.858 1367.56 918.858C1363.63 918.858 1363.61 918.879 1363.31 923.108C1363 927.337 1362.98 927.359 1358.75 927.665L1354.5 927.973V935.915V943.858H1350.5H1346.5V948.358V952.858H1342.59H1338.68L1337.97 961.358L1337.26 969.858H1333.38H1329.5V978.358V986.858H1325.65H1321.79L1321.15 993.608C1320.8 997.321 1320.51 1002.95 1320.51 1006.11L1320.5 1011.86H1316.5H1312.5V1026.71C1312.5 1034.88 1312.21 1044.33 1311.86 1047.71C1311.22 1053.82 1311.2 1053.86 1308.02 1053.86H1304.82L1304.16 1092.11C1303.8 1113.15 1303.5 1191 1303.5 1265.11L1303.5 1399.86H1308H1312.5V1403.86V1407.86H1316.5H1320.5V1403.86V1399.86H1325H1329.5V1247.86V1095.86H1333.5H1337.5L1337.51 1069.11C1337.51 1054.4 1337.8 1039.32 1338.15 1035.61L1338.79 1028.86H1342H1345.21L1345.85 1022.11C1346.2 1018.39 1346.49 1012.77 1346.49 1009.61L1346.5 1003.86H1350.46H1354.42L1354.71 995.108L1355 986.358L1358.65 986.054L1362.3 985.749L1363.01 977.804L1363.71 969.858H1367.6H1371.5V961.358V952.858H1375.44C1379.37 952.858 1379.39 952.837 1379.69 948.608C1380 944.379 1380.02 944.357 1384.25 944.051L1388.5 943.743V935.801V927.858H1392.44C1396.37 927.858 1396.39 927.837 1396.69 923.608C1397 919.379 1397.02 919.357 1401.25 919.051C1405.48 918.744 1405.5 918.724 1405.5 914.801C1405.5 910.868 1405.51 910.858 1409.5 910.858H1413.5V906.358V901.858H1417.5H1421.5V897.858V893.858H1426H1430.5V889.858V885.858H1434.5H1438.5V881.358V876.858H1443H1447.5V872.915C1447.5 868.992 1447.52 868.972 1451.75 868.665C1455.86 868.368 1456.01 868.237 1456.31 864.672L1456.61 860.986L1464.56 860.293L1472.5 859.6V855.729V851.858H1477H1481.5V847.948V844.038L1490 843.329L1498.5 842.621V838.74V834.858H1510.44H1522.39L1522.69 830.608L1523 826.358L1531.75 826.069L1540.5 825.78V822.462V819.143L1546.65 818.5C1550.03 818.147 1557.45 817.858 1563.15 817.858H1573.5V814.016V810.175L1593.16 809.516C1603.97 809.154 1617.47 808.858 1623.16 808.858H1633.5V805.462V802.066L1641.5 801.358L1649.5 800.65V788.254V775.858H1620H1590.5V779.858ZM1624.5 830.858V834.858H1603H1581.5V838.858V842.858H1573.16C1568.57 842.858 1559.34 843.152 1552.66 843.512L1540.5 844.165V848.012V851.858H1532H1523.5V855.858V859.858H1515.06H1506.61L1506.31 864.108L1506 868.358L1497.75 868.648L1489.5 868.939V872.78V876.621L1481 877.329L1472.5 878.038V881.948C1472.5 885.843 1472.48 885.858 1468.5 885.858H1464.5V889.858V893.858H1460H1455.5V897.858V901.858H1451.5H1447.5V906.358V910.858H1443H1438.5V914.858V918.858H1434.5H1430.5V923.358V927.858H1426H1421.5V931.858V935.858H1417.5H1413.5V940.358V944.858H1409.6H1405.71L1405.01 952.804L1404.3 960.749L1400.65 961.054L1397 961.358L1396.71 969.608L1396.42 977.858H1392.58H1388.74L1388.03 986.358L1387.32 994.858H1384H1380.68L1379.97 1003.36L1379.26 1011.86H1375.38H1371.5V1024.36V1036.86H1367.65H1363.81L1363.16 1049.61C1362.8 1056.62 1362.51 1068.1 1362.5 1075.11L1362.5 1087.86H1359.16H1355.82L1355.16 1113.52C1354.31 1146.53 1354.3 1385.61 1355.14 1393.71L1355.79 1399.86H1363.64H1371.5V1403.86V1407.86H1375.5H1379.5V1403.86V1399.86H1384H1388.5V1230.86V1061.86H1392.5H1396.5V1051.51C1396.5 1045.81 1396.79 1038.39 1397.14 1035.01C1397.78 1028.87 1397.79 1028.86 1401.02 1028.86H1404.26L1404.97 1020.36L1405.68 1011.86H1409.59H1413.5V1005.5C1413.5 1002.01 1413.79 996.385 1414.14 993.005L1414.79 986.858H1418.08C1421.25 986.858 1421.4 986.687 1421.69 982.608C1422 978.379 1422.02 978.357 1426.25 978.051L1430.5 977.743V969.801V961.858H1434.5H1438.5V957.358V952.858H1443H1447.5V948.858V944.858H1451.5H1455.5V940.358V935.858H1460H1464.5V931.858V927.858H1468.5H1472.5V923.358V918.858H1477H1481.5V914.858V910.858H1485.5C1489.48 910.858 1489.5 910.838 1489.5 906.976V903.095L1498 902.387L1506.5 901.678V897.768V893.858H1515H1523.5V889.948V886.038L1532 885.329L1540.5 884.621V880.74V876.858H1553H1565.5V872.858V868.858L1579.75 868.851C1587.59 868.847 1597.04 868.557 1600.75 868.206L1607.5 867.569V864.356C1607.5 861.157 1607.53 861.14 1613.65 860.5C1617.03 860.147 1624.68 859.858 1630.65 859.858H1641.5V855.858V851.858H1645.5H1649.5V843.358V834.858H1641.5H1633.5V830.858V826.858H1629H1624.5V830.858ZM1598.5 889.858V893.858H1582H1565.5V897.713V901.569L1558.75 902.206C1555.04 902.557 1549.41 902.847 1546.25 902.851L1540.5 902.858V906.858V910.858H1532H1523.5V914.801C1523.5 918.724 1523.48 918.744 1519.25 919.051C1515.15 919.347 1514.99 919.485 1514.7 923.009L1514.39 926.659L1506.45 927.363L1498.5 928.066V931.962V935.858H1494H1489.5V940.358V944.858H1485.5H1481.5V948.858V952.858H1477H1472.5V956.858V960.858H1468.5H1464.5V965.358V969.858H1460H1455.5V974.358V978.858H1451.5H1447.5V986.858V994.858H1443.59H1439.68L1438.97 1003.36L1438.26 1011.86H1434.38H1430.5V1020.36V1028.86H1426.65H1422.79L1422.15 1035.61C1421.8 1039.32 1421.51 1044.92 1421.51 1048.05L1421.5 1053.74L1417.75 1054.05L1414 1054.36L1413.75 1227.11L1413.49 1399.86H1418H1422.5V1403.86V1407.86H1426.5H1430.5V1403.86C1430.5 1399.88 1430.52 1399.86 1434.36 1399.86H1438.22L1438.86 1393.71C1439.21 1390.33 1439.5 1320.13 1439.5 1237.71V1087.86H1442.85H1446.19L1446.84 1075.11C1447.2 1068.1 1447.49 1058.65 1447.5 1054.11L1447.5 1045.86H1451.5H1455.5V1037.36V1028.86H1459.41H1463.32L1464.03 1020.36L1464.74 1011.86H1468.49H1472.24L1472.94 1003.91L1473.63 995.971L1477.31 995.665C1480.88 995.368 1481.01 995.219 1481.31 991.108C1481.61 986.879 1481.63 986.858 1485.56 986.858H1489.5V982.358V977.858H1493.5H1497.5V973.858V969.858H1502H1506.5V965.358V960.858H1510.5H1514.5V956.858V952.858H1522.94H1531.39L1531.69 948.608C1532 944.379 1532.02 944.357 1536.25 944.051C1540.48 943.744 1540.5 943.724 1540.5 939.801V935.858H1549H1557.5V931.858V927.858L1567.25 927.851C1572.61 927.847 1580.01 927.559 1583.7 927.211L1590.4 926.579L1590.7 922.968L1591 919.358L1611.75 919.088L1632.5 918.817V914.956V911.095L1641 910.387L1649.5 909.678V901.768V893.858H1645.5H1641.5V889.858V885.858H1620H1598.5V889.858ZM1616.17 936.525C1615.8 936.891 1615.5 938.627 1615.5 940.382C1615.5 943.554 1615.46 943.577 1609.35 944.216C1605.97 944.569 1598.32 944.858 1592.35 944.858H1581.5V948.858V952.858H1569.56H1557.61L1557.31 957.108C1557 961.337 1556.98 961.359 1552.75 961.665C1548.52 961.972 1548.5 961.992 1548.5 965.915V969.858H1540H1531.5V973.858V977.858H1527.5H1523.5V982.358V986.858H1519H1514.5V990.858V994.858H1510.5H1506.5V999.358V1003.86H1502.6H1498.71L1498 1011.86L1497.29 1019.86H1493.4H1489.5V1028.36V1036.86H1485.61H1481.71L1481 1045.86L1480.29 1054.86H1477.03C1473.85 1054.86 1473.76 1054.98 1473.15 1060.11C1472.8 1063 1472.51 1074.25 1472.51 1085.11L1472.5 1104.86H1468.5H1464.5V1252.36V1399.86H1469H1473.5V1403.86V1407.86H1481.5H1489.5V1403.86V1399.86H1493.5H1497.5L1497.5 1258.61C1497.5 1180.92 1497.8 1108.94 1498.16 1098.66L1498.81 1079.96L1502.41 1079.66L1506 1079.36L1506.28 1066.61L1506.56 1053.86H1510.53H1514.5V1045.36V1036.86H1518.4H1522.29L1523 1028.86L1523.71 1020.86H1527.6H1531.5V1016.36V1011.86H1536H1540.5V1007.86V1003.86H1544.5H1548.5V999.358V994.858H1556.5H1564.5V990.987V987.116L1573.5 986.412L1582.5 985.708V981.783V977.858H1591H1599.5V973.858V969.858H1620.5H1641.5V965.358V960.858H1645.5H1649.5V952.858V944.858H1645.5H1641.5V940.358V935.858H1629.17C1622.38 935.858 1616.53 936.158 1616.17 936.525ZM1603.75 995.59C1599.67 995.958 1599.5 996.108 1599.5 999.326V1002.68L1591 1003.39L1582.5 1004.1V1007.86V1011.62L1574 1012.33L1565.5 1013.04V1016.95C1565.5 1020.84 1565.48 1020.86 1561.5 1020.86H1557.5V1024.86V1028.86H1553H1548.5V1036.8V1044.74L1544.25 1045.05C1540.02 1045.36 1540 1045.38 1539.69 1049.61C1539.39 1053.84 1539.37 1053.86 1535.44 1053.86H1531.5V1062.36V1070.86H1527.66H1523.83L1523.16 1109.11C1522.8 1130.15 1522.5 1198.55 1522.5 1261.11L1522.5 1374.86H1519H1515.5V1382.86V1390.86H1519C1522.48 1390.86 1522.5 1390.88 1522.5 1395.36V1399.86H1527H1531.5V1403.86V1407.86H1535.5H1539.5V1403.86V1399.86H1544H1548.5V1247.86V1095.86H1552.5H1556.5L1556.51 1090.11C1556.51 1086.95 1556.8 1081.32 1557.15 1077.61L1557.79 1070.86H1561.65H1565.5V1066.36V1061.86H1569.4H1573.29L1574 1053.86L1574.71 1045.86H1578.6C1582.47 1045.86 1582.5 1045.82 1582.5 1041.96V1038.07L1590.5 1037.36L1598.5 1036.65V1032.75V1028.86H1611.5H1624.5V1024.86V1020.86H1630.85C1634.35 1020.86 1639.97 1020.57 1643.35 1020.22L1649.5 1019.57V1007.86V996.143L1643.35 995.5C1637.07 994.843 1611.4 994.902 1603.75 995.59ZM1624.5 1049.86V1053.86H1616H1607.5V1057.75V1061.65L1599.6 1062.35L1591.69 1063.05L1590.99 1070.95L1590.29 1078.86H1586.4H1582.5V1087.36V1095.86H1578.65H1574.81L1574.16 1108.61C1573.32 1125.15 1573.3 1385.65 1574.14 1393.71L1574.79 1399.86H1578.64C1582.48 1399.86 1582.5 1399.88 1582.5 1403.86V1407.86H1587H1591.5V1403.86V1399.86H1595.5H1599.5V1395.86V1391.86H1603.5H1607.5V1243.86V1095.86H1611.5H1615.5V1091.86V1087.86H1620H1624.5V1083.95V1080.04L1633 1079.33L1641.5 1078.62V1074.74C1641.5 1070.88 1641.52 1070.86 1645.5 1070.86H1649.5V1062.36V1053.86H1645.5H1641.5V1049.86V1045.86H1633H1624.5V1049.86Z" fill="white"/>
</svg>
